<?xml version="1.0" standalone="no"?>
<!DOCTYPE svg PUBLIC "-//W3C//DTD SVG 1.1//EN" "http://www.w3.org/Graphics/SVG/1.1/DTD/svg11.dtd" >
<svg xmlns="http://www.w3.org/2000/svg" xmlns:xlink="http://www.w3.org/1999/xlink" version="1.1">
<metadata>
Created by FontForge 20170731 at Thu Apr 27 17:13:32 2017
 By Aleksey,,,
Copyright 2002 by Ole Schaefer, published by primetype GmbH, primetype.com for the primetype library. All Rights Reserved.
</metadata>
<defs>
<font id="ManualSemi-Medium" horiz-adv-x="471" >
  <font-face 
    font-family="ManualSemi-Medium"
    font-weight="400"
    font-stretch="normal"
    units-per-em="2048"
    panose-1="2 0 5 3 4 0 0 2 0 3"
    ascent="1597"
    descent="-451"
    x-height="942"
    cap-height="1475"
    bbox="-82 -451 1944 1866"
    underline-thickness="102"
    underline-position="-816"
    unicode-range="U+000D-FB02"
  />
<missing-glyph horiz-adv-x="748" 
d="M68 0v1365h544v-1365h-544zM136 68h408v1229h-408v-1229z" />
    <glyph glyph-name=".notdef" horiz-adv-x="748" 
d="M68 0v1365h544v-1365h-544zM136 68h408v1229h-408v-1229z" />
    <glyph glyph-name="glyph1" horiz-adv-x="0" 
 />
    <glyph glyph-name="glyph2" horiz-adv-x="682" 
 />
    <glyph glyph-name="uni000D" unicode="&#xd;" horiz-adv-x="593" 
 />
    <glyph glyph-name="space" unicode=" " horiz-adv-x="593" 
 />
    <glyph glyph-name="exclam" unicode="!" horiz-adv-x="399" 
d="M63 98q0 62 40.5 98.5t97.5 36.5t96 -37t39 -98q0 -60 -39 -99.5t-96 -39.5t-97.5 39t-40.5 100zM88 410v962h223v-962h-223z" />
    <glyph glyph-name="quotedbl" unicode="&#x22;" horiz-adv-x="643" 
d="M72 758v461h198v-461h-198zM375 758v461h196v-461h-196z" />
    <glyph glyph-name="numbersign" unicode="#" horiz-adv-x="1247" 
d="M41 248v180h205v342h-205v182h205v297l221 25v-322h311v297l223 25v-322h205v-182h-205v-342h205v-180h-205v-289l-223 -25v314h-311v-289l-221 -25v314h-205zM467 428h311v342h-311v-342z" />
    <glyph glyph-name="dollar" unicode="$" horiz-adv-x="870" 
d="M37 66l51 163q214 -61 318 -61q90 0 137 35t47 114q0 68 -37 104.5t-115 70.5l-104 45q-62 27 -104.5 53t-84 66.5t-62 97.5t-20.5 131t20 132.5t54.5 97.5t83.5 65t103.5 37.5t117.5 11.5q20 0 40 -1.5t36 -3t37.5 -6t33 -6.5t35 -9t31.5 -9t33.5 -11.5t30.5 -11
t33.5 -12.5t31.5 -12l-49 -162q-202 55 -284 55q-70 0 -112 -36.5t-42 -102.5q0 -64 35 -99t108 -67l111 -47q61 -26 105 -53t84.5 -67.5t61.5 -97t21 -128.5q0 -362 -409 -362q-62 0 -134 14.5t-115.5 28.5t-127.5 43zM307 -61h219l-18 -267h-182zM307 1270l19 266h182
l18 -266h-219z" />
    <glyph glyph-name="percent" unicode="%" horiz-adv-x="1581" 
d="M51 924q0 145 84.5 225t222.5 80t222 -80t84 -225t-84 -226.5t-222 -81.5t-222.5 81.5t-84.5 226.5zM240 924q0 -71 29.5 -110.5t88.5 -39.5t88 39.5t29 110.5t-29 110t-88 39t-88.5 -39t-29.5 -110zM449 -20l477 1300l204 -51l-475 -1303zM918 285q0 145 83.5 226
t221.5 81t222.5 -81t84.5 -226t-84.5 -225t-222.5 -80t-221.5 80t-83.5 225zM1106 285q0 -71 29 -110.5t88 -39.5t88.5 39.5t29.5 110.5t-29.5 110t-88.5 39t-88 -39t-29 -110z" />
    <glyph glyph-name="ampersand" unicode="&#x26;" horiz-adv-x="1374" 
d="M84 362q0 85 25.5 155.5t72 121.5t95 85.5t112.5 66.5q-64 73 -100.5 148.5t-36.5 182.5q0 168 109 270.5t294 102.5q189 0 295.5 -93t106.5 -251q0 -229 -285 -365l-88 95q71 58 106 111.5t35 129.5q0 86 -46 136.5t-124 50.5q-73 0 -118 -49t-45 -121q0 -40 10 -76
t32 -72.5t39 -58.5t48 -60l303 -362l272 336l131 -82l-278 -406l104 -127q37 -45 79.5 -71t110.5 -39l-16 -141q-161 -12 -240 19.5t-151 123.5l-37 47q-79 -88 -172 -139t-221 -51q-92 0 -167.5 23t-133 68.5t-89.5 119.5t-32 171zM334 391q0 -101 52 -155t142 -54
q66 0 124 38t120 106l-276 340q-73 -58 -117.5 -123.5t-44.5 -151.5z" />
    <glyph glyph-name="quotesingle" unicode="'" horiz-adv-x="342" 
d="M72 758v461h198v-461h-198z" />
    <glyph glyph-name="parenleft" unicode="(" horiz-adv-x="600" 
d="M84 629q0 100 13 195t33 169.5t51.5 147.5t59.5 124t66.5 106t63.5 85.5t59 69.5l170 -51q-4 -6 -33.5 -50.5t-40.5 -63.5t-40 -68t-43.5 -83t-38.5 -89.5t-36.5 -106t-26.5 -113t-20 -131t-6 -141.5q0 -65 6 -128.5t14.5 -115.5t24.5 -107.5t28.5 -95.5t35 -88.5
t36 -76.5t39 -71t36 -60.5t35.5 -55t30 -45.5l-170 -51q-50 57 -85.5 102.5t-89 134.5t-87 176.5t-59 215.5t-25.5 266z" />
    <glyph glyph-name="parenright" unicode=")" horiz-adv-x="600" 
d="M0 -215q5 8 30 45.5t35.5 55t36 60.5t39 71t36 76.5t35 88.5t28.5 95.5t24.5 107.5t14.5 115.5t6 128.5q0 73 -6 141.5t-20 131t-26.5 113t-36.5 106t-38.5 89.5t-43.5 83t-40 68t-40.5 63.5t-33.5 50.5l168 51q50 -58 85.5 -103t89.5 -134t88 -177t59.5 -216.5
t25.5 -266.5t-25.5 -266t-59.5 -215.5t-88 -176.5t-89.5 -134t-85.5 -103z" />
    <glyph glyph-name="asterisk" unicode="*" horiz-adv-x="860" 
d="M31 1167l82 172l219 -100v246h192v-248l224 104l81 -172l-245 -116l182 -211l-150 -125l-184 219l-182 -219l-150 125l181 209z" />
    <glyph glyph-name="plus" unicode="+" horiz-adv-x="796" 
d="M41 453v180h252v282h211v-282h252v-180h-252v-283h-211v283h-252z" />
    <glyph glyph-name="comma" unicode="," horiz-adv-x="399" 
d="M45 -256l70 469l233 -23l-125 -469z" />
    <glyph glyph-name="hyphen" unicode="-" horiz-adv-x="509" 
d="M41 442v170h428v-170h-428z" />
    <glyph glyph-name="period" unicode="." horiz-adv-x="399" 
d="M63 98q0 62 40.5 98.5t97.5 36.5t96 -37t39 -98q0 -60 -39 -99.5t-96 -39.5t-97.5 39t-40.5 100z" />
    <glyph glyph-name="slash" unicode="/" horiz-adv-x="643" 
d="M6 -184l406 1710l225 -31l-406 -1710z" />
    <glyph glyph-name="zero" unicode="0" horiz-adv-x="1187" 
d="M84 516q0 254 142 396.5t368 142.5t368 -142.5t142 -396.5q0 -266 -139 -401t-371 -135t-371 135t-139 401zM315 516q0 -175 79 -264.5t200 -89.5t199.5 89.5t78.5 264.5q0 181 -78 268.5t-200 87.5t-200.5 -87.5t-78.5 -268.5z" />
    <glyph glyph-name="one" unicode="1" horiz-adv-x="751" 
d="M27 864l383 170h114v-882h197v-152h-633v152h215v626l-233 -65z" />
    <glyph glyph-name="two" unicode="2" horiz-adv-x="903" 
d="M72 973q77 29 115 42t108 26.5t141 13.5q385 0 385 -314q0 -55 -16 -102t-37 -78t-60 -62.5t-65 -47.5t-73 -42q-8 -5 -13.5 -8t-11.5 -6q-42 -23 -64.5 -36t-54.5 -35.5t-48 -41t-28 -45t-12 -55.5h493v-182h-727v113q0 56 11 105t25.5 85t42.5 71t49.5 56.5t59.5 47.5
t59 38.5t61 34.5q8 4 30 16t30 17t26.5 16t26 17.5t21 17.5t19.5 20.5t13 22t9.5 26.5t2.5 29q0 131 -168 131q-112 0 -305 -55z" />
    <glyph glyph-name="three" unicode="3" horiz-adv-x="884" 
d="M31 -150l45 164q71 -20 100.5 -27.5t89.5 -18.5t103 -11q209 0 209 193q0 107 -59.5 156.5t-182.5 49.5h-119v170h98q105 0 160 47t55 140q0 155 -165 155q-23 0 -48.5 -2.5t-42.5 -4.5t-49.5 -8.5t-40.5 -8.5t-47 -11.5t-41 -9.5l-45 162q62 22 98.5 33.5t106 24
t135.5 12.5q373 0 373 -318q0 -117 -55.5 -181.5t-149.5 -96.5q121 -31 186.5 -103.5t65.5 -220.5q0 -96 -31.5 -167t-88.5 -112.5t-129 -61t-161 -19.5q-160 0 -370 75z" />
    <glyph glyph-name="four" unicode="4" horiz-adv-x="1024" 
d="M31 31v153l616 850h182v-821h164v-182h-164v-250l-221 -31v281h-577zM260 213h348v477z" />
    <glyph glyph-name="five" unicode="5" horiz-adv-x="921" 
d="M68 -156l45 164q192 -51 284 -51q89 0 143 51.5t54 145.5q0 198 -229 198h-240l35 682h637v-190h-426l-21 -314h70q64 0 119.5 -10t109.5 -35.5t92.5 -65.5t62 -104.5t23.5 -148.5q0 -105 -31 -182.5t-87.5 -122t-127 -65.5t-157.5 -21q-155 0 -356 69z" />
    <glyph glyph-name="six" unicode="6" horiz-adv-x="1015" 
d="M84 463q0 340 219 559q201 201 500 252l41 -164q-251 -67 -389 -215q-98 -105 -125 -221q116 80 245 80q165 0 261 -97t96 -278q0 -129 -58 -221t-152.5 -135t-213.5 -43q-89 0 -164 28.5t-134 85t-92.5 151t-33.5 218.5zM315 444q0 -136 50.5 -211t144.5 -75
q96 0 145.5 57.5t49.5 163.5q0 98 -45 151.5t-132 53.5q-105 0 -213 -76v-64z" />
    <glyph glyph-name="seven" unicode="7" horiz-adv-x="796" 
d="M31 852v182h725v-121l-363 -1159l-221 43l340 1055h-481z" />
    <glyph glyph-name="eight" unicode="8" horiz-adv-x="1005" 
d="M76 313q0 196 180 310q-145 95 -145 272q0 161 109.5 247.5t283.5 86.5q178 0 284.5 -83.5t106.5 -238.5q0 -162 -156 -272q42 -23 73.5 -47.5t59.5 -59.5t43 -83.5t15 -108.5q0 -175 -115.5 -265.5t-310.5 -90.5q-87 0 -163 20t-136 59.5t-94.5 104.5t-34.5 149z
M305 338q0 -88 55.5 -137t143.5 -49q87 0 139.5 44t52.5 121q0 39 -12.5 68.5t-39.5 50.5t-52.5 34t-67.5 30l-121 47q-98 -94 -98 -209zM340 911q0 -61 35 -96t104 -65l109 -48q84 91 84 191q0 76 -43.5 120t-124.5 44q-73 0 -118.5 -39t-45.5 -107z" />
    <glyph glyph-name="nine" unicode="9" horiz-adv-x="1017" 
d="M84 657q0 189 118.5 293.5t305.5 104.5q199 0 312.5 -133t113.5 -371q0 -290 -150 -496q-149 -199 -475 -293l-65 156q252 93 368 254q57 77 78 197q-113 -70 -248 -70q-166 0 -262 92t-96 266zM311 670q0 -91 46.5 -146t131.5 -55q99 0 211 66v53q0 60 -9.5 109t-31 91
t-60.5 65.5t-93 23.5q-94 0 -144.5 -55.5t-50.5 -151.5z" />
    <glyph glyph-name="colon" unicode=":" horiz-adv-x="419" 
d="M84 98q0 62 40 98.5t97 36.5t96 -37t39 -98q0 -60 -39 -99.5t-96 -39.5t-97 39t-40 100zM84 784q0 62 40 99t97 37t96 -37.5t39 -98.5q0 -60 -39 -98.5t-96 -38.5t-97 38t-40 99z" />
    <glyph glyph-name="semicolon" unicode=";" horiz-adv-x="419" 
d="M45 -256l70 469l233 -23l-125 -469zM84 784q0 62 40 99t97 37t96 -37.5t39 -98.5q0 -60 -39 -98.5t-96 -38.5t-97 38t-40 99z" />
    <glyph glyph-name="less" unicode="&#x3c;" horiz-adv-x="796" 
d="M41 475v135l715 375v-223l-461 -219l461 -217v-226z" />
    <glyph glyph-name="equal" unicode="=" horiz-adv-x="796" 
d="M41 289v182h715v-182h-715zM41 614v183h715v-183h-715z" />
    <glyph glyph-name="greater" unicode="&#x3e;" horiz-adv-x="796" 
d="M41 100v226l461 217l-461 219v223l715 -375v-135z" />
    <glyph glyph-name="question" unicode="?" horiz-adv-x="770" 
d="M0 1307q72 27 108 40t114 29.5t147 16.5q161 0 260.5 -77.5t99.5 -232.5q0 -71 -20.5 -129t-50.5 -93.5t-66 -74t-66 -71t-50.5 -82.5t-20.5 -111v-112h-222v92q0 85 19.5 155.5t48.5 114t63.5 83.5t63.5 68.5t48.5 64.5t19.5 75q0 68 -36.5 103.5t-105.5 35.5
q-47 0 -109.5 -11.5t-95 -20t-104.5 -29.5zM207 98q0 62 40 98.5t97 36.5q58 0 97.5 -37t39.5 -98q0 -60 -39.5 -99.5t-97.5 -39.5q-57 0 -97 39t-40 100z" />
    <glyph glyph-name="at" unicode="@" horiz-adv-x="2027" 
d="M84 492q0 184 48.5 341.5t136 273.5t207.5 197.5t264 122.5t304 41q187 0 349 -53t285.5 -153.5t194.5 -259t71 -355.5q0 -314 -135 -482.5t-357 -168.5q-236 0 -311 190q-120 -145 -275 -145q-134 0 -216.5 93t-82.5 267q0 132 41 240t111.5 177.5t161.5 107t192 37.5
q73 0 153 -14.5t111 -24t93 -29.5l-87 -498q-16 -98 12.5 -158.5t110.5 -60.5q106 0 171 119.5t65 349.5q0 179 -81 321t-231.5 223t-345.5 81q-149 0 -280.5 -55t-228.5 -154t-153 -247t-56 -324q0 -360 212 -559t603 -199q20 0 76.5 1t60.5 1l2 -182q-69 -5 -160 -5
q-512 0 -774 244t-262 699zM801 408q0 -181 119 -181q106 0 196 125q0 17 6 35l66 379q-72 14 -121 14q-118 0 -192 -105.5t-74 -266.5z" />
    <glyph glyph-name="A" unicode="A" horiz-adv-x="1228" 
d="M23 0l466 1475h250l467 -1475h-245l-89 289h-516l-88 -289h-245zM412 481h405l-139 469q-55 191 -64 246q-8 -48 -63 -246z" />
    <glyph glyph-name="B" unicode="B" horiz-adv-x="1105" 
d="M125 0v1475h420q194 0 310 -89.5t116 -277.5q0 -140 -57 -217.5t-160 -120.5q278 -70 278 -371q0 -104 -35 -182t-97.5 -124.5t-142.5 -69.5t-177 -23h-455zM356 193h172q128 0 195.5 56t67.5 181q0 232 -279 232h-156v-469zM356 846h142q231 0 231 225q0 107 -56.5 159
t-178.5 52h-138v-436z" />
    <glyph glyph-name="C" unicode="C" horiz-adv-x="1112" 
d="M82 737q0 155 31.5 282t86 214.5t131.5 147t165.5 87t189.5 27.5q161 0 377 -84l-51 -178q-215 59 -320 59q-160 0 -260 -137t-100 -418q0 -144 29.5 -253t81 -172.5t114.5 -94.5t137 -31q111 0 324 82l63 -172q-224 -116 -399 -116q-102 0 -190 25.5t-164.5 83t-130 144
t-84.5 215t-31 289.5z" />
    <glyph glyph-name="D" unicode="D" horiz-adv-x="1331" 
d="M125 0v1475h418q83 0 157.5 -11t146.5 -36.5t131.5 -64.5t110 -98t85 -134t54 -175t19.5 -219q0 -166 -38 -295t-101.5 -211.5t-155 -135t-191.5 -74t-218 -21.5h-418zM356 193h166q85 0 154.5 16t132 54.5t105 99.5t67.5 156t25 218q0 545 -484 545h-166v-1089z" />
    <glyph glyph-name="E" unicode="E" horiz-adv-x="931" 
d="M125 0v1475h756v-193h-525v-432h443v-193h-443v-464h525v-193h-756z" />
    <glyph glyph-name="F" unicode="F" horiz-adv-x="931" 
d="M125 0v1475h756v-193h-525v-432h443v-193h-443v-657h-231z" />
    <glyph glyph-name="G" unicode="G" horiz-adv-x="1257" 
d="M82 737q0 155 33.5 282t92 214.5t140.5 147t176.5 87t202.5 27.5q26 0 52 -2t47 -4t47.5 -8t42.5 -9t43 -11.5t38 -12t38.5 -13.5t33.5 -12.5t34 -13.5t30 -12l-56 -176q-224 71 -344 71q-78 0 -148 -32t-127.5 -96t-91.5 -174t-34 -253q0 -120 20 -215t54.5 -158
t83 -104.5t102 -59.5t115.5 -18q85 0 194 23v532h232v-678q-260 -79 -451 -79q-102 0 -189 24t-164 80.5t-131 142.5t-85 215.5t-31 294.5z" />
    <glyph glyph-name="H" unicode="H" horiz-adv-x="1218" 
d="M125 0v1475h231v-625h506v625h232v-1475h-232v657h-506v-657h-231z" />
    <glyph glyph-name="I" unicode="I" horiz-adv-x="481" 
d="M125 0v1475h231v-1475h-231z" />
    <glyph glyph-name="J" unicode="J" horiz-adv-x="585" 
d="M6 100q120 29 171.5 85t51.5 171v1119h232v-1129q0 -102 -25.5 -173t-81 -115.5t-130 -69t-185.5 -39.5z" />
    <glyph glyph-name="K" unicode="K" horiz-adv-x="1058" 
d="M125 0v1475h231v-674l418 674h258l-436 -691l268 -514q37 -70 78.5 -105t116.5 -48l-17 -137h-22q-149 0 -227 39q-84 42 -150 169l-287 547v-735h-231z" />
    <glyph glyph-name="L" unicode="L" horiz-adv-x="849" 
d="M125 0v1475h231v-1282h463v-193h-694z" />
    <glyph glyph-name="M" unicode="M" horiz-adv-x="1689" 
d="M84 0l168 1475h242l286 -914q50 -151 66 -244q20 103 63 244l287 914h242l168 -1475h-238l-86 737q-16 129 -20 256q-29 -127 -70 -256l-231 -737h-232l-233 737q-50 165 -70 256q-11 -199 -18 -256l-86 -737h-238z" />
    <glyph glyph-name="N" unicode="N" horiz-adv-x="1259" 
d="M125 0v1475h182l596 -947v947h232v-1475h-183l-596 948v-948h-231z" />
    <glyph glyph-name="O" unicode="O" horiz-adv-x="1443" 
d="M78 737q0 190 49.5 337t137.5 238t203.5 137t252.5 46q109 0 205 -28.5t177.5 -89t139.5 -148.5t90.5 -213.5t32.5 -278.5q0 -158 -33 -285.5t-91 -214.5t-140 -145.5t-177 -85t-204 -26.5t-203.5 26.5t-176 85t-139.5 145.5t-91 214.5t-33 285.5zM319 737
q0 -280 111 -417.5t291 -137.5q87 0 158 32t126.5 97.5t86 174t30.5 251.5q0 280 -110 418.5t-291 138.5q-87 0 -159 -32.5t-127 -98.5t-85.5 -174.5t-30.5 -251.5z" />
    <glyph glyph-name="P" unicode="P" horiz-adv-x="1044" 
d="M125 0v1475h420q98 0 177.5 -25t140.5 -76t94.5 -136.5t33.5 -199.5q0 -118 -40.5 -207t-112 -141.5t-163 -78t-200.5 -25.5h-119v-586h-231zM356 772h101q142 0 217.5 62t75.5 200q0 248 -256 248h-138v-510z" />
    <glyph glyph-name="Q" unicode="Q" horiz-adv-x="1443" 
d="M78 737q0 190 49.5 337t137.5 238t203.5 137t252.5 46q109 0 205 -28.5t177.5 -89t139.5 -148.5t90.5 -213.5t32.5 -278.5q0 -446 -254 -639l92 -131q40 -59 90 -91t117 -46l-31 -149q-132 2 -216 44t-169 154l-94 125q-85 -24 -180 -24q-109 0 -203.5 26.5t-176 85
t-139.5 145.5t-91 214.5t-33 285.5zM319 737q0 -269 103 -408.5t270 -150.5l35 156h21q130 0 221 -68q153 143 153 471q0 280 -110 418.5t-291 138.5q-87 0 -159 -32.5t-127 -98.5t-85.5 -174.5t-30.5 -251.5z" />
    <glyph glyph-name="R" unicode="R" horiz-adv-x="1101" 
d="M125 0v1475h420q94 0 169.5 -21.5t134 -67.5t90.5 -124t32 -183q0 -154 -81.5 -251t-221.5 -134l239 -424q40 -70 80.5 -104.5t114.5 -48.5l-17 -137h-15q-153 0 -232 40q-83 42 -152 168l-266 484h-64v-672h-231zM356 854h101q136 0 204 52t68 169q0 110 -60.5 158.5
t-174.5 48.5h-138v-428z" />
    <glyph glyph-name="S" unicode="S" horiz-adv-x="1015" 
d="M27 80l53 180q277 -78 385 -78q127 0 190.5 48.5t63.5 156.5q0 49 -14.5 85t-45.5 62t-60.5 42t-78.5 36l-153 64q-49 20 -86 39.5t-81 54.5t-72 75.5t-47.5 101.5t-19.5 134q0 110 37 192.5t102 129.5t143 69.5t169 22.5q75 0 154.5 -16t125.5 -31.5t121 -44.5l-49 -172
q-8 2 -48 13t-56 15t-53.5 12.5t-62 12t-58.5 7t-64 3.5q-103 0 -161 -47t-58 -143q0 -45 13.5 -79t40.5 -59t56.5 -42t73.5 -35l160 -66q53 -21 94.5 -43.5t85 -57.5t72.5 -75.5t47.5 -99t18.5 -127.5q0 -122 -39.5 -210.5t-109.5 -137t-153.5 -70.5t-185.5 -22
q-78 0 -170.5 18.5t-140 34t-139.5 47.5z" />
    <glyph glyph-name="T" unicode="T" horiz-adv-x="940" 
d="M0 1272v203h940v-203h-354v-1272h-232v1272h-354z" />
    <glyph glyph-name="U" unicode="U" horiz-adv-x="1208" 
d="M125 512v963h231v-953q0 -176 62 -258t186 -82q248 0 248 340v953h231v-963q0 -532 -479 -532t-479 532z" />
    <glyph glyph-name="V" unicode="V" horiz-adv-x="1165" 
d="M-10 1475h252l282 -986q44 -147 60 -245q19 117 57 245l285 986h250l-447 -1475h-291z" />
    <glyph glyph-name="W" unicode="W" horiz-adv-x="1849" 
d="M23 1475h249l195 -965q28 -140 39 -256q19 128 53 256l246 965h242l243 -965q40 -168 51 -256q14 112 41 256l195 965h250l-328 -1475h-293l-227 887q-14 55 -53 246q-14 -87 -54 -246l-229 -887h-293z" />
    <glyph glyph-name="X" unicode="X" horiz-adv-x="1146" 
d="M-4 0l418 758l-398 717h273l284 -543l283 543h274l-395 -717l416 -758h-274l-304 573l-305 -573h-272z" />
    <glyph glyph-name="Y" unicode="Y" horiz-adv-x="1165" 
d="M-10 1475h262l332 -648l331 648h261l-478 -893v-582h-231v582z" />
    <glyph glyph-name="Z" unicode="Z" horiz-adv-x="923" 
d="M53 0v133l514 1139h-493v203h786v-134l-514 -1138h535v-203h-828z" />
    <glyph glyph-name="bracketleft" unicode="[" horiz-adv-x="561" 
d="M125 -377v2065h457v-172h-236v-1721h236v-172h-457z" />
    <glyph glyph-name="backslash" unicode="\" horiz-adv-x="643" 
d="M6 1495l225 31l406 -1710l-225 -31z" />
    <glyph glyph-name="bracketright" unicode="]" horiz-adv-x="563" 
d="M-20 -205h235v1721h-235v172h458v-2065h-458v172z" />
    <glyph glyph-name="asciicircum" unicode="^" horiz-adv-x="837" 
d="M20 963l324 512h150l323 -512h-223l-176 284l-174 -284h-224z" />
    <glyph glyph-name="underscore" unicode="_" horiz-adv-x="919" 
d="M0 -207h920v-170h-920v170z" />
    <glyph glyph-name="grave" unicode="`" horiz-adv-x="620" 
d="M84 1309l133 139l320 -291l-125 -129z" />
    <glyph glyph-name="a" unicode="a" horiz-adv-x="952" 
d="M61 248q0 82 28 140.5t80.5 91t118.5 47t152 14.5q42 0 166 -9v93q0 81 -31 115t-108 34q-14 0 -30.5 -1t-30 -2.5t-32.5 -5t-31.5 -6t-33.5 -7.5l-31.5 -7.5t-33 -8.5l-30 -8t-31.5 -8.5t-29 -8.5l-45 166q81 28 117.5 40t122 29t161.5 17q165 0 241 -75.5t76 -242.5
v-338q0 -130 82 -244l-147 -94q-83 64 -119 133q-119 -122 -281 -122q-141 0 -221 61t-80 207zM295 270q0 -62 27 -90t88 -28q92 0 196 100v143q-110 4 -153 4q-84 0 -121 -30t-37 -99z" />
    <glyph glyph-name="b" unicode="b" horiz-adv-x="1054" 
d="M43 1434l152 96q151 -118 151 -285v-383q108 101 254 101q176 0 273.5 -123.5t97.5 -368.5q0 -128 -34 -224t-97 -153.5t-145.5 -85.5t-184.5 -28q-151 0 -385 43v1163q0 145 -82 248zM346 170q79 -12 158 -12q111 0 173 78t62 235q0 305 -184 305q-99 0 -209 -102v-504z
" />
    <glyph glyph-name="c" unicode="c" horiz-adv-x="864" 
d="M84 471q0 125 35 221.5t95 154.5t135 87t161 29q92 0 164.5 -18t154.5 -52l-45 -164q-14 4 -55.5 15.5t-63.5 17t-57 11t-65 5.5q-228 0 -228 -307q0 -153 56.5 -230t154.5 -77q12 0 25 1t23.5 2.5t26.5 5t24.5 5t27 7.5t25 7.5t27.5 9t25 8.5t28 9.5t26 9.5l54 -159
q-180 -90 -338 -90q-68 0 -126.5 14.5t-112.5 49.5t-92.5 90t-61.5 141t-23 196z" />
    <glyph glyph-name="d" unicode="d" horiz-adv-x="1075" 
d="M84 471q0 245 120.5 368.5t330.5 123.5q80 0 194 -27v250q0 145 -82 248l154 96q149 -117 149 -285v-942q0 -132 82 -246l-147 -94q-87 68 -125 154q-123 -137 -297 -137q-179 0 -279 119.5t-100 371.5zM315 471q0 -162 47.5 -233.5t147.5 -71.5q98 0 219 117v481
q-92 20 -178 20q-117 0 -176.5 -81t-59.5 -232z" />
    <glyph glyph-name="e" unicode="e" horiz-adv-x="997" 
d="M84 471q0 122 35.5 218t96.5 154.5t139.5 89t168.5 30.5q194 0 298 -134q98 -127 98 -369v-28h-603q7 -133 70.5 -200.5t169.5 -67.5q98 0 295 69l55 -155q-69 -32 -109 -48t-112.5 -33t-144.5 -17t-135 14t-123.5 49t-103.5 89.5t-69 141t-26 197.5zM324 584h370
q-2 100 -48.5 158.5t-125.5 58.5q-78 0 -128.5 -56t-67.5 -161z" />
    <glyph glyph-name="f" unicode="f" horiz-adv-x="618" 
d="M10 770v172h150v225q0 162 83 245t220 83q99 0 256 -53l-43 -166q-122 31 -180 31q-113 0 -113 -133v-232h219v-172h-219v-770h-223v770h-150z" />
    <glyph glyph-name="g" unicode="g" horiz-adv-x="1075" 
d="M84 481q0 125 35 219t99.5 150.5t148.5 84.5t188 28q167 0 395 -58v-968q0 -194 -87 -280.5t-279 -86.5q-196 0 -441 96l54 164q238 -70 354 -70q92 0 135 45.5t43 143.5v157q-109 -106 -266 -106q-179 0 -279 118t-100 363zM315 483q0 -155 48 -226t147 -71
q94 0 219 113v465q-99 18 -178 18q-115 0 -175.5 -78.5t-60.5 -220.5z" />
    <glyph glyph-name="h" unicode="h" horiz-adv-x="1075" 
d="M43 1434l152 96q151 -118 151 -285v-414q125 132 287 132q158 0 237.5 -92t79.5 -261v-610h-221v588q0 170 -151 170q-105 0 -232 -127v-631h-221v1186q0 145 -82 248z" />
    <glyph glyph-name="i" unicode="i" 
d="M109 1245q0 57 37 91t90 34q54 0 90 -34t36 -91q0 -56 -36.5 -92.5t-89.5 -36.5q-54 0 -90.5 36t-36.5 93zM125 0v942h221v-942h-221z" />
    <glyph glyph-name="j" unicode="j" 
d="M-51 -317q89 80 132.5 154t43.5 183v922h221v-911q0 -91 -20.5 -163.5t-63.5 -128t-90.5 -95.5t-118.5 -84zM109 1245q0 57 37 91t90 34q54 0 90 -34t36 -91q0 -56 -36.5 -92.5t-89.5 -36.5q-54 0 -90.5 36t-36.5 93z" />
    <glyph glyph-name="k" unicode="k" horiz-adv-x="874" 
d="M43 1434l152 96q151 -118 151 -285v-676l256 373h252l-279 -395l299 -547h-256l-272 508v-508h-221v1186q0 145 -82 248z" />
    <glyph glyph-name="l" unicode="l" 
d="M43 1434l152 96q151 -118 151 -285v-946q0 -145 82 -248l-160 -92q-143 107 -143 281v946q0 145 -82 248z" />
    <glyph glyph-name="m" unicode="m" horiz-adv-x="1640" 
d="M43 864l152 99q91 -72 124 -156q131 156 306 156q194 0 268 -164q142 164 315 164q156 0 232 -96.5t76 -268.5v-598h-224v578q0 90 -31 135t-106 45q-104 0 -225 -129v-629h-221v578q0 89 -31.5 134.5t-106.5 45.5q-104 0 -225 -125v-633h-221v618q0 143 -82 246z" />
    <glyph glyph-name="n" unicode="n" horiz-adv-x="1075" 
d="M43 864l152 99q90 -73 124 -160q138 160 314 160q158 0 237.5 -92t79.5 -261v-610h-221v590q0 85 -36.5 126.5t-114.5 41.5q-105 0 -232 -131v-627h-221v618q0 143 -82 246z" />
    <glyph glyph-name="o" unicode="o" horiz-adv-x="1095" 
d="M78 471q0 121 35.5 215.5t99.5 154.5t148.5 91t185.5 31q102 0 187 -31t149 -91t99.5 -154.5t35.5 -215.5q0 -124 -35.5 -219.5t-99.5 -154t-148.5 -88t-187.5 -29.5t-187.5 29.5t-148 88t-98.5 154t-35 219.5zM309 471q0 -156 63.5 -234.5t174.5 -78.5q112 0 174.5 78
t62.5 235q0 155 -64 235t-173 80q-110 0 -174 -80t-64 -235z" />
    <glyph glyph-name="p" unicode="p" horiz-adv-x="1054" 
d="M43 864l152 99q76 -62 114 -136q118 136 285 136q178 0 277.5 -121.5t99.5 -370.5q0 -128 -34 -224t-97 -153.5t-145.5 -85.5t-184.5 -28q-76 0 -164 18v-408h-221v1028q0 143 -82 246zM346 178q85 -20 162 -20q108 0 169.5 78.5t61.5 234.5q0 305 -186 305
q-91 0 -207 -108v-490z" />
    <glyph glyph-name="q" unicode="q" horiz-adv-x="1075" 
d="M84 471q0 129 35 225.5t99.5 154t148.5 85t188 27.5q167 0 395 -58v-1315h-221v496q-109 -106 -266 -106q-179 0 -279 119.5t-100 371.5zM315 473q0 -162 47.5 -234.5t147.5 -72.5q98 0 219 113v485q-99 18 -178 18q-116 0 -176 -79.5t-60 -229.5z" />
    <glyph glyph-name="r" unicode="r" horiz-adv-x="643" 
d="M43 864l152 99q84 -67 122 -156q95 145 232 145q27 0 84 -10l-21 -207q-54 6 -59 6q-47 0 -102.5 -31t-104.5 -85v-625h-221v618q0 143 -82 246z" />
    <glyph glyph-name="s" unicode="s" horiz-adv-x="821" 
d="M20 57l46 164q201 -59 303 -59q168 0 168 92q0 35 -21.5 56t-69.5 36l-196 62q-199 63 -199 268q0 287 340 287q68 0 136 -12t100 -22t102 -34l-45 -164q-176 49 -260 49q-73 0 -106 -20.5t-33 -65.5q0 -30 25 -52.5t44.5 -29t61.5 -17.5q7 -2 10 -3l141 -41
q203 -58 203 -266q0 -164 -97 -234.5t-282 -70.5q-147 0 -371 77z" />
    <glyph glyph-name="t" unicode="t" horiz-adv-x="663" 
d="M10 770v172h164v246l223 31v-277h236v-172h-236v-496q0 -118 88 -118q29 0 140 26l39 -153q-134 -49 -242 -49q-248 0 -248 274v516h-164z" />
    <glyph glyph-name="u" unicode="u" horiz-adv-x="1054" 
d="M125 344v598h221v-584q0 -188 141 -188q99 0 222 123v649h221v-639q0 -132 82 -246l-148 -94q-85 63 -127 162q-127 -145 -303 -145q-156 0 -232.5 96t-76.5 268z" />
    <glyph glyph-name="v" unicode="v" horiz-adv-x="993" 
d="M-10 942h248l270 -727l248 727h248l-355 -942h-284z" />
    <glyph glyph-name="w" unicode="w" horiz-adv-x="1671" 
d="M16 942h248l215 -711l223 711h265l250 -711l190 711h248l-289 -942h-289l-239 684l-224 -684h-288z" />
    <glyph glyph-name="x" unicode="x" horiz-adv-x="909" 
d="M-10 0l309 496l-289 446h271l184 -299l170 299h264l-289 -465l310 -477h-271l-203 328l-192 -328h-264z" />
    <glyph glyph-name="y" unicode="y" horiz-adv-x="964" 
d="M-4 942h244l272 -743l221 743h236l-348 -1122q-40 -131 -109.5 -190.5t-189.5 -59.5q-94 0 -211 41l36 153q91 -26 146 -26q83 0 121 121l43 141h-92z" />
    <glyph glyph-name="z" unicode="z" horiz-adv-x="825" 
d="M53 0v104l404 666h-394v172h705v-106l-399 -660h409v-176h-725z" />
    <glyph glyph-name="braceleft" unicode="{" horiz-adv-x="583" 
d="M20 571v170h35q111 0 111 115v576q0 119 65 187.5t189 68.5h153v-172h-88q-54 0 -76 -23t-22 -80v-557q0 -159 -123 -201q123 -48 123 -198v-559q0 -57 22 -80t76 -23h88v-172h-153q-127 0 -190.5 68t-63.5 188v578q0 114 -111 114h-35z" />
    <glyph glyph-name="bar" unicode="|" 
d="M125 -205v1721h221v-1721h-221z" />
    <glyph glyph-name="braceright" unicode="}" horiz-adv-x="583" 
d="M10 -205h88q54 0 76.5 23t22.5 80v559q0 151 122 198q-122 42 -122 201v557q0 57 -22.5 80t-76.5 23h-88v172h154q124 0 189 -68.5t65 -187.5v-576q0 -115 110 -115h35v-170h-35q-110 0 -110 -114v-578q0 -120 -63.5 -188t-190.5 -68h-154v172z" />
    <glyph glyph-name="asciitilde" unicode="~" horiz-adv-x="792" 
d="M16 559q60 46 110.5 71t109.5 25q19 0 47 -4l202 -35q34 -6 62 -6q16 0 31.5 2.5t25.5 4.5t26 9t22 10t24.5 13t23.5 13l76 -138q-61 -47 -110 -71.5t-107 -24.5q-21 0 -49 4l-201 35q-34 6 -61 6q-11 0 -21 -0.5t-20 -3t-17 -3.5t-18 -5.5t-15.5 -6t-16.5 -7.5l-15 -7.5
t-17 -9t-16 -8.5z" />
    <glyph glyph-name="uni00A0" unicode="&#xa0;" horiz-adv-x="593" 
 />
    <glyph glyph-name="exclamdown" unicode="&#xa1;" horiz-adv-x="399" 
d="M63 895q0 60 39.5 99.5t96.5 39.5t97 -39t40 -100q0 -62 -40 -98.5t-97 -36.5t-96.5 37t-39.5 98zM88 -379v963h223v-963h-223z" />
    <glyph glyph-name="cent" unicode="&#xa2;" horiz-adv-x="888" 
d="M84 471q0 125 35 221.5t95 154.5t135 87t161 29q92 0 164.5 -18t154.5 -52l-45 -164q-14 4 -55.5 15.5t-63.5 17t-57 11t-65 5.5q-228 0 -228 -307q0 -153 56.5 -230t154.5 -77q12 0 25 1t23.5 2.5t26.5 5t24.5 5t27 7.5t25 7.5t27.5 9t25 8.5t28 9.5t26 9.5l54 -159
q-180 -90 -338 -90q-68 0 -126.5 14.5t-112.5 49.5t-92.5 90t-61.5 141t-23 196zM401 -61h222l-19 -267h-184zM401 1004l19 266h184l19 -266h-222z" />
    <glyph glyph-name="sterling" unicode="&#xa3;" horiz-adv-x="925" 
d="M125 0v815q0 208 111.5 311t298.5 103q104 0 185 -19.5t175 -56.5l-47 -164q-188 49 -301 49q-94 0 -147.5 -54t-53.5 -163v-145l391 -14v-152l-391 -14v-314h531v-182h-752z" />
    <glyph glyph-name="currency" unicode="&#xa4;" horiz-adv-x="1024" 
d="M86 299l147 147q-30 65 -30 148q0 78 33 149l-150 150l129 129l152 -152q62 29 145 29t145 -29l152 152l129 -129l-150 -150q33 -71 33 -149q0 -84 -30 -148l147 -147l-129 -129l-147 149q-64 -30 -150 -30t-150 30l-147 -149zM389 594q0 -70 32 -107.5t91 -37.5t91 37.5
t32 107.5t-32 107.5t-91 37.5t-91 -37.5t-32 -107.5z" />
    <glyph glyph-name="yen" unicode="&#xa5;" horiz-adv-x="1075" 
d="M45 1208h244l248 -544l247 544h246l-229 -460l209 -17v-156l-301 -14l-60 -117v-14l361 -14v-158l-361 -14v-244h-223v244l-360 14v158l360 14v16l-57 115l-303 14v156l208 17z" />
    <glyph glyph-name="brokenbar" unicode="&#xa6;" 
d="M125 -205v748h221v-748h-221zM125 768v748h221v-748h-221z" />
    <glyph glyph-name="section" unicode="&#xa7;" horiz-adv-x="866" 
d="M45 -106l45 163q201 -59 303 -59q84 0 126 19.5t42 68.5q0 39 -28 62t-82 40l-129 43q-43 14 -74.5 28t-66.5 37.5t-57.5 51.5t-37 69.5t-14.5 92.5q0 126 135 219q-111 78 -111 215q0 76 28 133t77 89t108 47.5t127 15.5q158 0 338 -68l-45 -162q-173 48 -260 48
q-69 0 -104 -18.5t-35 -65.5q0 -39 31 -60t100 -43l102 -33q57 -18 96 -37.5t74.5 -50t53.5 -76t18 -106.5q0 -130 -125 -223q115 -78 115 -213q0 -305 -379 -305q-152 0 -371 78zM299 553q0 -42 31 -66.5t94 -48.5l100 -37q51 55 51 113q0 43 -29.5 69t-84.5 46l-107 37
q-55 -52 -55 -113z" />
    <glyph glyph-name="dieresis" unicode="&#xa8;" horiz-adv-x="800" 
d="M84 1214q0 55 35.5 88t87.5 33t86.5 -32.5t34.5 -88.5q0 -54 -35 -89t-86 -35q-52 0 -87.5 34.5t-35.5 89.5zM471 1214q0 55 35.5 88t87.5 33q53 0 88 -33t35 -88q0 -53 -35.5 -88.5t-87.5 -35.5t-87.5 34.5t-35.5 89.5z" />
    <glyph glyph-name="copyright" unicode="&#xa9;" horiz-adv-x="1720" 
d="M84 604q0 227 103.5 402.5t279.5 268.5t393 93t393 -93t279.5 -268.5t103.5 -402.5q0 -171 -60 -315t-164 -242t-246.5 -152.5t-305.5 -54.5q-220 0 -395.5 93t-278 268t-102.5 403zM315 604q0 -130 42 -238t115.5 -180t173 -111.5t214.5 -39.5t214.5 39.5t173 111.5
t115.5 180t42 238t-42 238t-115.5 180.5t-173 112t-214.5 39.5t-214.5 -39.5t-173 -112t-115.5 -180.5t-42 -238zM487 604q0 111 33 199.5t89 142t125.5 81.5t146.5 28q102 0 260 -62l-39 -135q-5 1 -32.5 9t-36.5 10t-32.5 8t-37.5 8t-33 4t-35 2q-94 0 -155.5 -70.5
t-61.5 -224.5q0 -78 19 -137t51.5 -91.5t70 -48.5t78.5 -16q13 0 26.5 1.5t30 5t28 6.5t31 9.5l28.5 9.5t32 11.5t29 10.5l51 -129q-160 -82 -274 -82q-80 0 -149 26.5t-124 79.5t-87 141.5t-32 202.5z" />
    <glyph glyph-name="ordfeminine" unicode="&#xaa;" horiz-adv-x="952" 
d="M61 780q0 82 28 140.5t80.5 91t118.5 47t152 14.5q56 0 166 -8v92q0 81 -31 115.5t-108 34.5q-20 0 -41.5 -1.5t-48 -6.5t-43 -8t-49.5 -11.5t-43 -11.5t-47 -13.5t-41 -11.5l-45 166q81 28 117.5 40t122 29t161.5 17q165 0 241 -75.5t76 -241.5v-338q0 -130 82 -244
l-147 -94q-83 64 -119 133q-120 -123 -281 -123q-141 0 -221 61t-80 207zM104 0v193h746v-193h-746zM295 803q0 -62 27 -90.5t88 -28.5q92 0 196 100v144q-110 4 -153 4q-84 0 -121 -30t-37 -99z" />
    <glyph glyph-name="guillemotleft" unicode="&#xab;" horiz-adv-x="882" 
d="M41 553l238 367l176 -50l-170 -317l170 -317l-176 -50zM428 553l240 367l174 -50l-170 -317l170 -317l-176 -50z" />
    <glyph glyph-name="logicalnot" unicode="&#xac;" horiz-adv-x="796" 
d="M41 453v180h715v-436h-201v256h-514z" />
    <glyph glyph-name="uni00AD" unicode="&#xad;" horiz-adv-x="509" 
d="M41 442v170h428v-170h-428z" />
    <glyph glyph-name="registered" unicode="&#xae;" horiz-adv-x="1064" 
d="M57 1049q0 212 134.5 341.5t340.5 129.5q205 0 340.5 -132t135.5 -339q0 -211 -133.5 -341t-342.5 -130q-211 0 -343 129.5t-132 341.5zM207 1049q0 -155 91 -247.5t234 -92.5t233.5 92.5t90.5 247.5t-90.5 247.5t-233.5 92.5t-234 -92.5t-91 -247.5zM369 791v520h166
q79 0 128.5 -35.5t49.5 -112.5q0 -94 -103 -141l78 -137q11 -19 20.5 -28t26.5 -15l-8 -60q-63 0 -96.5 12t-52.5 48l-89 168v-219h-120zM489 1096h19q45 0 63.5 15t18.5 48q0 60 -68 60h-33v-123z" />
    <glyph glyph-name="macron" unicode="&#xaf;" horiz-adv-x="706" 
d="M84 1110v180h539v-180h-539z" />
    <glyph glyph-name="degree" unicode="&#xb0;" horiz-adv-x="729" 
d="M51 1190q0 144 87.5 224.5t226.5 80.5t226 -80.5t87 -224.5t-87 -225.5t-226 -81.5t-226.5 81.5t-87.5 225.5zM242 1190q0 -70 32 -110t91 -40t90.5 40t31.5 110t-31.5 109.5t-90.5 39.5t-91 -39.5t-32 -109.5z" />
    <glyph glyph-name="plusminus" unicode="&#xb1;" horiz-adv-x="796" 
d="M41 0v182h715v-182h-715zM41 461v182h252v272h211v-272h252v-182h-252v-221h-211v221h-252z" />
    <glyph glyph-name="uni00B2" unicode="&#xb2;" horiz-adv-x="696" 
d="M78 1145q155 61 260 61q118 0 190 -54t72 -167q0 -87 -37 -139t-108 -101l-86 -61q-84 -59 -95 -125h344v-149h-522v102q0 66 14 115.5t53 93.5t64 64.5t91 67.5q17 13 26 19q39 29 57.5 52.5t18.5 52.5q0 76 -90 76q-71 0 -213 -43z" />
    <glyph glyph-name="uni00B3" unicode="&#xb3;" horiz-adv-x="696" 
d="M92 442l39 136q10 -3 35.5 -10t40 -11t36 -9t40.5 -7t36 -2q105 0 105 96q0 55 -28.5 78.5t-96.5 23.5h-131v146h119q108 0 108 90q0 74 -78 74q-21 0 -47 -4t-39.5 -7t-48.5 -11.5t-41 -10.5l-37 135q114 38 168 45q29 4 60 4q117 0 181.5 -52t64.5 -159
q0 -116 -101 -164q59 -22 94 -71t35 -125q0 -122 -75 -180t-193 -58q-102 0 -246 53z" />
    <glyph glyph-name="acute" unicode="&#xb4;" horiz-adv-x="620" 
d="M84 1157l317 291l136 -139l-330 -281z" />
    <glyph glyph-name="mu" unicode="&#xb5;" horiz-adv-x="1054" 
d="M125 -410v1352h221v-584q0 -188 141 -188q99 0 222 123v649h221v-639q0 -132 82 -246l-148 -94q-85 63 -127 162q-127 -145 -303 -145q-41 0 -88 14v-404h-221z" />
    <glyph glyph-name="paragraph" unicode="&#xb6;" horiz-adv-x="1331" 
d="M51 1010q0 116 34.5 206t96 146t142.5 84.5t178 28.5h336v-1475h-232v553h-67q-110 0 -196.5 25t-153 78t-102.5 142.5t-36 211.5zM295 1010q0 -139 71 -204t191 -65h49v541h-71q-240 0 -240 -272zM973 0v1475h231v-1475h-231z" />
    <glyph glyph-name="periodcentered" unicode="&#xb7;" horiz-adv-x="399" 
d="M63 672q0 62 40.5 98.5t97.5 36.5t96 -37t39 -98q0 -60 -39 -100t-96 -40t-97.5 39.5t-40.5 100.5z" />
    <glyph glyph-name="cedilla" unicode="&#xb8;" horiz-adv-x="505" 
d="M84 -324l170 283l168 -94l-184 -277z" />
    <glyph glyph-name="uni00B9" unicode="&#xb9;" horiz-adv-x="696" 
d="M66 1071l294 123h95v-647h176v-137h-537v137h187v446l-177 -49z" />
    <glyph glyph-name="ordmasculine" unicode="&#xba;" horiz-adv-x="1075" 
d="M78 1004q0 121 35.5 215.5t99.5 154t148.5 90.5t185.5 31q137 0 241.5 -53t167 -165.5t62.5 -272.5q0 -124 -35.5 -219.5t-99 -154.5t-148.5 -88.5t-188 -29.5t-187.5 29.5t-148 88.5t-98.5 154t-35 220zM119 0v193h858v-193h-858zM309 1004q0 -157 63.5 -235.5
t174.5 -78.5q112 0 174.5 78.5t62.5 235.5q0 155 -64 235t-173 80q-110 0 -174 -80t-64 -235z" />
    <glyph glyph-name="guillemotright" unicode="&#xbb;" horiz-adv-x="882" 
d="M41 236l170 317l-170 317l176 50l238 -367l-238 -367zM428 236l170 317l-170 317l176 50l238 -367l-238 -367z" />
    <glyph glyph-name="onequarter" unicode="&#xbc;" horiz-adv-x="1738" 
d="M66 1071l294 123h95v-647h176v-137h-537v137h187v446l-177 -49zM430 -160l758 1585l203 -61l-758 -1585zM1085 145v121l365 518h156v-489h90v-150h-90v-145h-174v145h-347zM1278 295h154v217z" />
    <glyph glyph-name="onehalf" unicode="&#xbd;" horiz-adv-x="1738" 
d="M66 1071l294 123h95v-647h176v-137h-537v137h187v446l-177 -49zM410 -160l757 1585l203 -61l-758 -1585zM1120 735q158 62 260 62q118 0 189 -54.5t71 -167.5q0 -46 -11 -83t-33 -66t-43.5 -47.5t-55.5 -42.5l-86 -62q-85 -60 -96 -124h344v-150h-520v102q0 67 14 116.5
t54 94.5t64.5 65t91.5 68q15 11 23 17q38 29 56 52t18 52q0 76 -90 76q-69 0 -211 -43z" />
    <glyph glyph-name="threequarters" unicode="&#xbe;" horiz-adv-x="1738" 
d="M92 442l39 136q10 -3 35.5 -10t40 -11t36 -9t40.5 -7t36 -2q105 0 105 96q0 55 -28.5 78.5t-96.5 23.5h-131v146h119q108 0 108 90q0 74 -78 74q-21 0 -47 -4t-39.5 -7t-48.5 -11.5t-41 -10.5l-37 135q114 38 168 45q29 4 60 4q117 0 181.5 -52t64.5 -159
q0 -116 -101 -164q59 -22 94 -71t35 -125q0 -122 -75 -180t-193 -58q-102 0 -246 53zM410 -160l757 1585l203 -61l-758 -1585zM1085 145v121l365 518h156v-489h90v-150h-90v-145h-174v145h-347zM1278 295h154v217z" />
    <glyph glyph-name="questiondown" unicode="&#xbf;" horiz-adv-x="770" 
d="M41 -90q0 71 20.5 129t50.5 93.5t66 74t66 71t50.5 82.5t20.5 111v113h222v-92q0 -101 -27.5 -180t-66.5 -127t-77.5 -87.5t-66 -81t-27.5 -86.5q0 -67 37.5 -103t106.5 -36q15 0 31.5 1t30.5 2.5t32.5 5t30.5 5.5t33 7t30.5 7.5t32 8.5t29.5 8t31 9t28 8l45 -166
q-70 -27 -108 -40t-116 -29.5t-147 -16.5q-160 0 -259 77t-99 232zM289 895q0 60 39 99.5t96 39.5t98 -39t41 -100q0 -62 -41 -98.5t-98 -36.5t-96 37t-39 98z" />
    <glyph glyph-name="Agrave" unicode="&#xc0;" horiz-adv-x="1228" 
d="M23 0l466 1475h250l467 -1475h-245l-89 289h-516l-88 -289h-245zM377 1696l90 170l387 -191l-84 -159zM412 481h405l-139 469q-55 191 -64 246q-8 -48 -63 -246z" />
    <glyph glyph-name="Aacute" unicode="&#xc1;" horiz-adv-x="1228" 
d="M23 0l466 1475h250l467 -1475h-245l-89 289h-516l-88 -289h-245zM377 1675l385 191l92 -170l-393 -180zM412 481h405l-139 469q-55 191 -64 246q-8 -48 -63 -246z" />
    <glyph glyph-name="Acircumflex" unicode="&#xc2;" horiz-adv-x="1228" 
d="M23 0l466 1475h250l467 -1475h-245l-89 289h-516l-88 -289h-245zM297 1632l317 232l318 -232l-74 -116l-244 114l-243 -114zM412 481h405l-139 469q-55 191 -64 246q-8 -48 -63 -246z" />
    <glyph glyph-name="Atilde" unicode="&#xc3;" horiz-adv-x="1228" 
d="M23 0l466 1475h250l467 -1475h-245l-89 289h-516l-88 -289h-245zM309 1667q2 2 19.5 15.5t21.5 16.5t19.5 14.5t21 15t20 12.5t22 12t21 9t23.5 8t22.5 4t24.5 2q40 0 101 -22.5t88 -22.5q26 0 51.5 9t37 16t44.5 28l76 -117q-4 -4 -13 -11q-39 -33 -61.5 -49.5
t-62 -33.5t-78.5 -17q-38 0 -95.5 23t-89.5 23q-25 0 -51 -8.5t-41 -17t-47 -28.5zM412 481h405l-139 469q-55 191 -64 246q-8 -48 -63 -246z" />
    <glyph glyph-name="Adieresis" unicode="&#xc4;" horiz-adv-x="1228" 
d="M23 0l466 1475h250l467 -1475h-245l-89 289h-516l-88 -289h-245zM299 1659q0 55 36 89t87 34q52 0 87.5 -33.5t35.5 -89.5q0 -53 -35.5 -88t-87.5 -35t-87.5 34.5t-35.5 88.5zM412 481h405l-139 469q-55 191 -64 246q-8 -48 -63 -246zM686 1659q0 55 36.5 89t88.5 34
t86.5 -33.5t34.5 -89.5q0 -53 -35 -88t-86 -35q-52 0 -88.5 34.5t-36.5 88.5z" />
    <glyph glyph-name="Aring" unicode="&#xc5;" horiz-adv-x="1228" 
d="M23 0l419 1325q-73 70 -73 172t71 172t174 70t174.5 -70t71.5 -172q0 -101 -74 -172l420 -1325h-245l-89 289h-516l-88 -289h-245zM412 481h405l-139 469q-55 191 -64 246q-8 -48 -63 -246zM500 1497q0 -52 33 -87.5t81 -35.5t81.5 35.5t33.5 87.5q0 51 -34 87t-81 36
q-48 0 -81 -35.5t-33 -87.5z" />
    <glyph glyph-name="AE" unicode="&#xc6;" horiz-adv-x="1648" 
d="M23 0l704 1475h870v-193h-524v-432h443v-193h-443v-464h524v-193h-755v289h-422l-133 -289h-264zM504 481h338v731z" />
    <glyph glyph-name="Ccedilla" unicode="&#xc7;" horiz-adv-x="1112" 
d="M82 737q0 155 31.5 282t86 214.5t131.5 147t165.5 87t189.5 27.5q161 0 377 -84l-51 -178q-215 59 -320 59q-160 0 -260 -137t-100 -418q0 -144 29.5 -253t81 -172.5t114.5 -94.5t137 -31q111 0 324 82l63 -172q-224 -116 -399 -116q-102 0 -190 25.5t-164.5 83t-130 144
t-84.5 215t-31 289.5zM453 -324l170 283l168 -94l-185 -277z" />
    <glyph glyph-name="Egrave" unicode="&#xc8;" horiz-adv-x="931" 
d="M125 0v1475h756v-193h-525v-432h443v-193h-443v-464h525v-193h-756zM231 1696l93 170l385 -191l-84 -159z" />
    <glyph glyph-name="Eacute" unicode="&#xc9;" horiz-adv-x="931" 
d="M125 0v1475h756v-193h-525v-432h443v-193h-443v-464h525v-193h-756zM285 1675l385 191l90 -170l-393 -180z" />
    <glyph glyph-name="Ecircumflex" unicode="&#xca;" horiz-adv-x="931" 
d="M125 0v1475h756v-193h-525v-432h443v-193h-443v-464h525v-193h-756zM186 1632l318 232l317 -232l-73 -116l-244 114l-244 -114z" />
    <glyph glyph-name="Edieresis" unicode="&#xcb;" horiz-adv-x="931" 
d="M125 0v1475h756v-193h-525v-432h443v-193h-443v-464h525v-193h-756zM184 1659q0 55 36 89t87 34q52 0 86.5 -33.5t34.5 -89.5q0 -53 -35 -88t-86 -35q-52 0 -87.5 34.5t-35.5 88.5zM571 1659q0 55 36 89t87 34q52 0 87.5 -33.5t35.5 -89.5q0 -53 -35.5 -88t-87.5 -35
t-87.5 34.5t-35.5 88.5z" />
    <glyph glyph-name="Igrave" unicode="&#xcc;" horiz-adv-x="481" 
d="M2 1696l92 170l385 -191l-84 -159zM125 0v1475h231v-1475h-231z" />
    <glyph glyph-name="Iacute" unicode="&#xcd;" horiz-adv-x="481" 
d="M2 1675l387 191l90 -170l-393 -180zM125 0v1475h231v-1475h-231z" />
    <glyph glyph-name="Icircumflex" unicode="&#xce;" horiz-adv-x="481" 
d="M-78 1632l318 232l317 -232l-72 -116l-245 114l-244 -114zM125 0v1475h231v-1475h-231z" />
    <glyph glyph-name="Idieresis" unicode="&#xcf;" horiz-adv-x="481" 
d="M-55 1659q0 55 36.5 89t88.5 34t86 -33.5t34 -89.5q0 -54 -34.5 -88.5t-85.5 -34.5q-52 0 -88.5 34.5t-36.5 88.5zM125 0v1475h231v-1475h-231zM293 1659q0 55 36 89t87 34q52 0 86.5 -33.5t34.5 -89.5q0 -53 -34.5 -88t-86.5 -35t-87.5 34.5t-35.5 88.5z" />
    <glyph glyph-name="Eth" unicode="&#xd0;" horiz-adv-x="1331" 
d="M23 657v193h102v625h418q83 0 157.5 -11t146.5 -36.5t131.5 -64.5t110 -98t85 -134t54 -175t19.5 -219q0 -166 -38 -295t-101.5 -211.5t-155 -135t-191.5 -74t-218 -21.5h-418v657h-102zM356 193h166q85 0 154.5 16t132 54.5t105 99.5t67.5 156t25 218q0 545 -484 545
h-166v-432h443v-193h-443v-464z" />
    <glyph glyph-name="Ntilde" unicode="&#xd1;" horiz-adv-x="1259" 
d="M125 0v1475h182l596 -947v947h232v-1475h-183l-596 948v-948h-231zM324 1667q40 31 53.5 41t47 31.5t60.5 29t56 7.5q40 0 99.5 -22.5t86.5 -22.5q26 0 51.5 9t37 16t44.5 28l76 -117q-3 -3 -20.5 -17.5t-22 -18.5t-20 -16t-23 -16.5t-22 -13.5t-25 -12.5t-24.5 -8.5
t-27.5 -6.5t-28.5 -1.5q-38 0 -95 23t-89 23q-25 0 -51 -8.5t-43.5 -18t-47.5 -27.5z" />
    <glyph glyph-name="Ograve" unicode="&#xd2;" horiz-adv-x="1443" 
d="M78 737q0 190 49.5 337t137.5 238t203.5 137t252.5 46q109 0 205 -28.5t177.5 -89t139.5 -148.5t90.5 -213.5t32.5 -278.5q0 -158 -33 -285.5t-91 -214.5t-140 -145.5t-177 -85t-204 -26.5t-203.5 26.5t-176 85t-139.5 145.5t-91 214.5t-33 285.5zM319 737
q0 -280 111 -417.5t291 -137.5q87 0 158 32t126.5 97.5t86 174t30.5 251.5q0 280 -110 418.5t-291 138.5q-87 0 -159 -32.5t-127 -98.5t-85.5 -174.5t-30.5 -251.5zM483 1696l92 170l386 -191l-84 -159z" />
    <glyph glyph-name="Oacute" unicode="&#xd3;" horiz-adv-x="1443" 
d="M78 737q0 190 49.5 337t137.5 238t203.5 137t252.5 46q109 0 205 -28.5t177.5 -89t139.5 -148.5t90.5 -213.5t32.5 -278.5q0 -158 -33 -285.5t-91 -214.5t-140 -145.5t-177 -85t-204 -26.5t-203.5 26.5t-176 85t-139.5 145.5t-91 214.5t-33 285.5zM319 737
q0 -280 111 -417.5t291 -137.5q87 0 158 32t126.5 97.5t86 174t30.5 251.5q0 280 -110 418.5t-291 138.5q-87 0 -159 -32.5t-127 -98.5t-85.5 -174.5t-30.5 -251.5zM483 1675l387 191l91 -170l-394 -180z" />
    <glyph glyph-name="Ocircumflex" unicode="&#xd4;" horiz-adv-x="1443" 
d="M78 737q0 190 49.5 337t137.5 238t203.5 137t252.5 46q109 0 205 -28.5t177.5 -89t139.5 -148.5t90.5 -213.5t32.5 -278.5q0 -158 -33 -285.5t-91 -214.5t-140 -145.5t-177 -85t-204 -26.5t-203.5 26.5t-176 85t-139.5 145.5t-91 214.5t-33 285.5zM319 737
q0 -280 111 -417.5t291 -137.5q87 0 158 32t126.5 97.5t86 174t30.5 251.5q0 280 -110 418.5t-291 138.5q-87 0 -159 -32.5t-127 -98.5t-85.5 -174.5t-30.5 -251.5zM403 1632l318 232l317 -232l-71 -116l-246 114l-244 -114z" />
    <glyph glyph-name="Otilde" unicode="&#xd5;" horiz-adv-x="1443" 
d="M78 737q0 190 49.5 337t137.5 238t203.5 137t252.5 46q109 0 205 -28.5t177.5 -89t139.5 -148.5t90.5 -213.5t32.5 -278.5q0 -158 -33 -285.5t-91 -214.5t-140 -145.5t-177 -85t-204 -26.5t-203.5 26.5t-176 85t-139.5 145.5t-91 214.5t-33 285.5zM319 737
q0 -280 111 -417.5t291 -137.5q87 0 158 32t126.5 97.5t86 174t30.5 251.5q0 280 -110 418.5t-291 138.5q-87 0 -159 -32.5t-127 -98.5t-85.5 -174.5t-30.5 -251.5zM416 1667q40 31 53.5 41t47 31.5t60.5 29t56 7.5q40 0 99.5 -22.5t86.5 -22.5q26 0 51.5 9t37 16t44.5 28
l76 -117q-3 -3 -20.5 -17.5t-22 -18.5t-20 -16t-23 -16.5t-22 -13.5t-25 -12.5t-24.5 -8.5t-27.5 -6.5t-28.5 -1.5q-38 0 -95 23t-89 23q-25 0 -51 -8.5t-43.5 -18t-47.5 -27.5z" />
    <glyph glyph-name="Odieresis" unicode="&#xd6;" horiz-adv-x="1443" 
d="M78 737q0 190 49.5 337t137.5 238t203.5 137t252.5 46q109 0 205 -28.5t177.5 -89t139.5 -148.5t90.5 -213.5t32.5 -278.5q0 -158 -33 -285.5t-91 -214.5t-140 -145.5t-177 -85t-204 -26.5t-203.5 26.5t-176 85t-139.5 145.5t-91 214.5t-33 285.5zM319 737
q0 -280 111 -417.5t291 -137.5q87 0 158 32t126.5 97.5t86 174t30.5 251.5q0 280 -110 418.5t-291 138.5q-87 0 -159 -32.5t-127 -98.5t-85.5 -174.5t-30.5 -251.5zM324 1659q0 55 35.5 89t86.5 34q52 0 86.5 -33.5t34.5 -89.5q0 -53 -34.5 -88t-86.5 -35t-87 34t-35 89z
M877 1659q0 55 36.5 89t87.5 34q52 0 86.5 -33.5t34.5 -89.5q0 -53 -35 -88t-86 -35q-52 0 -88 34.5t-36 88.5z" />
    <glyph glyph-name="multiply" unicode="&#xd7;" horiz-adv-x="798" 
d="M82 354l188 189l-188 188l129 129l188 -188l187 188l131 -129l-191 -188l191 -189l-131 -129l-187 189l-188 -189z" />
    <glyph glyph-name="Oslash" unicode="&#xd8;" horiz-adv-x="1443" 
d="M78 737q0 190 49.5 337t137.5 238t203.5 137t252.5 46q166 0 295 -63l98 167l164 -65l-117 -205q205 -199 205 -592q0 -158 -33 -285.5t-91 -214.5t-140 -145.5t-177 -85t-204 -26.5q-170 0 -295 61l-96 -168l-164 68l115 202q-203 197 -203 594zM319 737q0 -236 91 -385
l508 891q-83 51 -197 51q-87 0 -159 -32.5t-127 -98.5t-85.5 -174.5t-30.5 -251.5zM526 233q83 -51 195 -51q87 0 158 32t126.5 97.5t86 174t30.5 251.5q0 241 -88 385z" />
    <glyph glyph-name="Ugrave" unicode="&#xd9;" horiz-adv-x="1208" 
d="M125 512v963h231v-953q0 -176 62 -258t186 -82q248 0 248 340v953h231v-963q0 -532 -479 -532t-479 532zM344 1696l92 170l385 -191l-84 -159z" />
    <glyph glyph-name="Uacute" unicode="&#xda;" horiz-adv-x="1208" 
d="M125 512v963h231v-953q0 -176 62 -258t186 -82q248 0 248 340v953h231v-963q0 -532 -479 -532t-479 532zM397 1675l387 191l90 -170l-393 -180z" />
    <glyph glyph-name="Ucircumflex" unicode="&#xdb;" horiz-adv-x="1208" 
d="M125 512v963h231v-953q0 -176 62 -258t186 -82q248 0 248 340v953h231v-963q0 -532 -479 -532t-479 532zM287 1632l317 232l318 -232l-74 -116l-244 114l-244 -114z" />
    <glyph glyph-name="Udieresis" unicode="&#xdc;" horiz-adv-x="1208" 
d="M125 512v963h231v-953q0 -176 62 -258t186 -82q248 0 248 340v953h231v-963q0 -532 -479 -532t-479 532zM289 1659q0 55 36 89t87 34q52 0 87.5 -33.5t35.5 -89.5q0 -53 -35.5 -88t-87.5 -35t-87.5 34.5t-35.5 88.5zM676 1659q0 55 36.5 89t88.5 34t86.5 -33.5
t34.5 -89.5q0 -53 -35 -88t-86 -35q-52 0 -88.5 34.5t-36.5 88.5z" />
    <glyph glyph-name="Yacute" unicode="&#xdd;" horiz-adv-x="1165" 
d="M-10 1475h262l332 -648l331 648h261l-478 -893v-582h-231v582zM377 1675l385 191l92 -170l-393 -180z" />
    <glyph glyph-name="Thorn" unicode="&#xde;" horiz-adv-x="1042" 
d="M125 0v1475h231v-256h189q98 0 177.5 -25t140.5 -76t94.5 -136.5t33.5 -199.5q0 -118 -40.5 -207t-112 -142t-163 -79t-200.5 -26h-119v-328h-231zM356 516h101q142 0 217.5 62t75.5 200q0 248 -256 248h-138v-510z" />
    <glyph glyph-name="germandbls" unicode="&#xdf;" horiz-adv-x="1150" 
d="M10 770v172h146v164q0 101 29.5 177t82 121.5t121 68t152.5 22.5q171 0 276 -84t105 -235q0 -137 -93 -246q-18 -22 -55 -60.5t-53 -61.5t-16 -44q0 -9 2 -16.5t4.5 -13.5t9 -12.5l10 -10t13.5 -10t15 -9.5t18 -10t18 -10l102 -56q44 -24 75.5 -48t63 -61.5t48 -91
t16.5 -120.5q0 -163 -96.5 -239t-253.5 -76q-151 0 -314 57l45 164q149 -39 234 -39q149 0 149 121q0 49 -24.5 82.5t-75.5 60.5l-107 57q-32 17 -54 32.5t-49 43t-41.5 67.5t-14.5 91q0 26 6 53t12.5 45.5t22.5 46.5t23 39t28.5 41.5t25.5 36.5q24 35 36.5 55.5t24 57.5
t11.5 77q0 67 -39.5 102.5t-107.5 35.5q-76 0 -120 -48t-44 -137v-1122h-221v770h-146z" />
    <glyph glyph-name="agrave" unicode="&#xe0;" horiz-adv-x="952" 
d="M61 248q0 82 28 140.5t80.5 91t118.5 47t152 14.5q42 0 166 -9v93q0 81 -31 115t-108 34q-14 0 -30.5 -1t-30 -2.5t-32.5 -5t-31.5 -6t-33.5 -7.5l-31.5 -7.5t-33 -8.5l-30 -8t-31.5 -8.5t-29 -8.5l-45 166q81 28 117.5 40t122 29t161.5 17q165 0 241 -75.5t76 -242.5
v-338q0 -130 82 -244l-147 -94q-83 64 -119 133q-119 -122 -281 -122q-141 0 -221 61t-80 207zM233 1309l136 139l317 -291l-123 -129zM295 270q0 -62 27 -90t88 -28q92 0 196 100v143q-110 4 -153 4q-84 0 -121 -30t-37 -99z" />
    <glyph glyph-name="aacute" unicode="&#xe1;" horiz-adv-x="952" 
d="M61 248q0 82 28 140.5t80.5 91t118.5 47t152 14.5q42 0 166 -9v93q0 81 -31 115t-108 34q-14 0 -30.5 -1t-30 -2.5t-32.5 -5t-31.5 -6t-33.5 -7.5l-31.5 -7.5t-33 -8.5l-30 -8t-31.5 -8.5t-29 -8.5l-45 166q81 28 117.5 40t122 29t161.5 17q165 0 241 -75.5t76 -242.5
v-338q0 -130 82 -244l-147 -94q-83 64 -119 133q-119 -122 -281 -122q-141 0 -221 61t-80 207zM295 270q0 -62 27 -90t88 -28q92 0 196 100v143q-110 4 -153 4q-84 0 -121 -30t-37 -99zM295 1157l317 291l136 -139l-328 -281z" />
    <glyph glyph-name="acircumflex" unicode="&#xe2;" horiz-adv-x="952" 
d="M61 248q0 82 28 140.5t80.5 91t118.5 47t152 14.5q42 0 166 -9v93q0 81 -31 115t-108 34q-14 0 -30.5 -1t-30 -2.5t-32.5 -5t-31.5 -6t-33.5 -7.5l-31.5 -7.5t-33 -8.5l-30 -8t-31.5 -8.5t-29 -8.5l-45 166q81 28 117.5 40t122 29t161.5 17q165 0 241 -75.5t76 -242.5
v-338q0 -130 82 -244l-147 -94q-83 64 -119 133q-119 -122 -281 -122q-141 0 -221 61t-80 207zM154 1147l317 291l317 -291l-102 -109l-215 166l-213 -166zM295 270q0 -62 27 -90t88 -28q92 0 196 100v143q-110 4 -153 4q-84 0 -121 -30t-37 -99z" />
    <glyph glyph-name="atilde" unicode="&#xe3;" horiz-adv-x="952" 
d="M61 248q0 82 28 140.5t80.5 91t118.5 47t152 14.5q42 0 166 -9v93q0 81 -31 115t-108 34q-14 0 -30.5 -1t-30 -2.5t-32.5 -5t-31.5 -6t-33.5 -7.5l-31.5 -7.5t-33 -8.5l-30 -8t-31.5 -8.5t-29 -8.5l-45 166q81 28 117.5 40t122 29t161.5 17q165 0 241 -75.5t76 -242.5
v-338q0 -130 82 -244l-147 -94q-83 64 -119 133q-119 -122 -281 -122q-141 0 -221 61t-80 207zM154 1202q40 31 53.5 41t47 31.5t60.5 29t56 7.5q40 0 100.5 -22.5t87.5 -22.5q26 0 51.5 9t37 16t44.5 28l76 -117q-77 -65 -113 -83q-50 -27 -102 -27q-38 0 -95 22.5
t-89 22.5q-25 0 -51 -8.5t-43.5 -18t-47.5 -27.5zM295 270q0 -62 27 -90t88 -28q92 0 196 100v143q-110 4 -153 4q-84 0 -121 -30t-37 -99z" />
    <glyph glyph-name="adieresis" unicode="&#xe4;" horiz-adv-x="952" 
d="M61 248q0 82 28 140.5t80.5 91t118.5 47t152 14.5q42 0 166 -9v93q0 81 -31 115t-108 34q-14 0 -30.5 -1t-30 -2.5t-32.5 -5t-31.5 -6t-33.5 -7.5l-31.5 -7.5t-33 -8.5l-30 -8t-31.5 -8.5t-29 -8.5l-45 166q81 28 117.5 40t122 29t161.5 17q165 0 241 -75.5t76 -242.5
v-338q0 -130 82 -244l-147 -94q-83 64 -119 133q-119 -122 -281 -122q-141 0 -221 61t-80 207zM154 1214q0 55 36.5 88t88.5 33t86 -32.5t34 -88.5q0 -54 -34.5 -89t-85.5 -35q-52 0 -88.5 35t-36.5 89zM295 270q0 -62 27 -90t88 -28q92 0 196 100v143q-110 4 -153 4
q-84 0 -121 -30t-37 -99zM543 1214q0 55 35.5 88t87.5 33t86 -32.5t34 -88.5q0 -54 -34.5 -89t-85.5 -35q-52 0 -87.5 34.5t-35.5 89.5z" />
    <glyph glyph-name="aring" unicode="&#xe5;" horiz-adv-x="952" 
d="M61 248q0 82 28 140.5t80.5 91t118.5 47t152 14.5q42 0 166 -9v93q0 81 -31 115t-108 34q-14 0 -30.5 -1t-30 -2.5t-32.5 -5t-31.5 -6t-33.5 -7.5l-31.5 -7.5t-33 -8.5l-30 -8t-31.5 -8.5t-29 -8.5l-45 166q81 28 117.5 40t122 29t161.5 17q165 0 241 -75.5t76 -242.5
v-338q0 -130 82 -244l-147 -94q-83 64 -119 133q-119 -122 -281 -122q-141 0 -221 61t-80 207zM250 1251q0 102 71.5 171t174.5 69t174 -69t71 -171t-71 -171.5t-174 -69.5t-174.5 69.5t-71.5 171.5zM295 270q0 -62 27 -90t88 -28q92 0 196 100v143q-110 4 -153 4
q-84 0 -121 -30t-37 -99zM381 1251q0 -52 33.5 -87.5t81.5 -35.5t81 35.5t33 87.5q0 51 -33.5 87t-80.5 36q-48 0 -81.5 -35.5t-33.5 -87.5z" />
    <glyph glyph-name="ae" unicode="&#xe6;" horiz-adv-x="1507" 
d="M61 248q0 82 28 140.5t80.5 91t118.5 47t152 14.5q42 0 166 -9v93q0 81 -31 115t-108 34q-14 0 -30.5 -1t-30 -2.5t-32.5 -5t-31.5 -6t-33.5 -7.5l-31.5 -7.5t-33 -8.5l-30 -8t-31.5 -8.5t-29 -8.5l-45 166q81 28 117.5 40t122 29t161.5 17q98 0 156.5 -25t95.5 -76
q113 101 272 101q195 0 298.5 -134t97.5 -397h-603q7 -133 70.5 -200.5t169.5 -67.5q98 0 295 69l55 -155q-69 -32 -109 -48t-112.5 -33t-144.5 -17q-251 0 -369 165q-139 -165 -320 -165q-141 0 -221 61t-80 207zM295 270q0 -62 27 -90t88 -28q101 0 211 114
q-20 65 -23 131q-53 2 -145 2q-84 0 -121 -30t-37 -99zM834 584h370q-2 100 -48.5 158.5t-125.5 58.5q-78 0 -128.5 -56t-67.5 -161z" />
    <glyph glyph-name="ccedilla" unicode="&#xe7;" horiz-adv-x="864" 
d="M84 471q0 125 35 221.5t95 154.5t135 87t161 29q92 0 164.5 -18t154.5 -52l-45 -164q-14 4 -55.5 15.5t-63.5 17t-57 11t-65 5.5q-228 0 -228 -307q0 -153 56.5 -230t154.5 -77q12 0 25 1t23.5 2.5t26.5 5t24.5 5t27 7.5t25 7.5t27.5 9t25 8.5t28 9.5t26 9.5l54 -159
q-180 -90 -338 -90q-68 0 -126.5 14.5t-112.5 49.5t-92.5 90t-61.5 141t-23 196zM295 -324l170 283l168 -94l-184 -277z" />
    <glyph glyph-name="egrave" unicode="&#xe8;" horiz-adv-x="997" 
d="M84 471q0 122 35.5 218t96.5 154.5t139.5 89t168.5 30.5q195 0 298.5 -134t97.5 -397h-603q7 -133 70.5 -200.5t169.5 -67.5q98 0 295 69l55 -155q-69 -32 -109 -48t-112.5 -33t-144.5 -17t-135 14t-123.5 49t-103.5 89.5t-69 141t-26 197.5zM242 1309l135 139l317 -291
l-123 -129zM324 584h370q-2 100 -48.5 158.5t-125.5 58.5q-78 0 -128.5 -56t-67.5 -161z" />
    <glyph glyph-name="eacute" unicode="&#xe9;" horiz-adv-x="997" 
d="M84 471q0 122 35.5 218t96.5 154.5t139.5 89t168.5 30.5q195 0 298.5 -134t97.5 -397h-603q7 -133 70.5 -200.5t169.5 -67.5q98 0 295 69l55 -155q-69 -32 -109 -48t-112.5 -33t-144.5 -17t-135 14t-123.5 49t-103.5 89.5t-69 141t-26 197.5zM305 1157l318 291l135 -139
l-328 -281zM324 584h370q-2 100 -48.5 158.5t-125.5 58.5q-78 0 -128.5 -56t-67.5 -161z" />
    <glyph glyph-name="ecircumflex" unicode="&#xea;" horiz-adv-x="997" 
d="M84 471q0 122 35.5 218t96.5 154.5t139.5 89t168.5 30.5q195 0 298.5 -134t97.5 -397h-603q7 -133 70.5 -200.5t169.5 -67.5q98 0 295 69l55 -155q-69 -32 -109 -48t-112.5 -33t-144.5 -17t-135 14t-123.5 49t-103.5 89.5t-69 141t-26 197.5zM188 1147l318 291l317 -291
l-102 -109l-215 166l-213 -166zM324 584h370q-2 100 -48.5 158.5t-125.5 58.5q-78 0 -128.5 -56t-67.5 -161z" />
    <glyph glyph-name="edieresis" unicode="&#xeb;" horiz-adv-x="997" 
d="M84 471q0 122 35.5 218t96.5 154.5t139.5 89t168.5 30.5q195 0 298.5 -134t97.5 -397h-603q7 -133 70.5 -200.5t169.5 -67.5q98 0 295 69l55 -155q-69 -32 -109 -48t-112.5 -33t-144.5 -17t-135 14t-123.5 49t-103.5 89.5t-69 141t-26 197.5zM193 1214q0 55 36 88t88 33
t86.5 -32.5t34.5 -88.5q0 -54 -35 -89t-86 -35q-52 0 -88 35t-36 89zM324 584h370q-2 100 -48.5 158.5t-125.5 58.5q-78 0 -128.5 -56t-67.5 -161zM582 1214q0 55 35.5 88t87.5 33t86 -32.5t34 -88.5q0 -54 -34.5 -89t-85.5 -35q-52 0 -87.5 34.5t-35.5 89.5z" />
    <glyph glyph-name="igrave" unicode="&#xec;" 
d="M0 1309l133 139l320 -291l-125 -129zM125 0v942h221v-942h-221z" />
    <glyph glyph-name="iacute" unicode="&#xed;" 
d="M20 1157l318 291l135 -139l-328 -281zM125 0v942h221v-942h-221z" />
    <glyph glyph-name="icircumflex" unicode="&#xee;" 
d="M-82 1147l318 291l317 -291l-102 -109l-215 166l-213 -166zM125 0v942h221v-942h-221z" />
    <glyph glyph-name="idieresis" unicode="&#xef;" 
d="M-61 1214q0 55 36 88t88 33t86.5 -32.5t34.5 -88.5q0 -54 -35 -89t-86 -35q-52 0 -88 35t-36 89zM125 0v942h221v-942h-221zM287 1214q0 55 35.5 88t87.5 33t86 -32.5t34 -88.5q0 -54 -34.5 -89t-85.5 -35q-52 0 -87.5 34.5t-35.5 89.5z" />
    <glyph glyph-name="eth" unicode="&#xf0;" horiz-adv-x="1097" 
d="M84 418q0 215 115.5 328.5t300.5 113.5q140 0 260 -74q-35 151 -125 261l-215 -101l-49 135l149 72q-122 89 -295 133l58 168q274 -52 450 -203l207 99l51 -136l-153 -73q176 -220 176 -588q0 -281 -118 -427t-349 -146q-216 0 -339.5 112t-123.5 326zM315 418
q0 -125 58.5 -191.5t173.5 -66.5q235 0 235 399q0 31 -2 47q-127 78 -252 78q-102 0 -157.5 -72.5t-55.5 -193.5z" />
    <glyph glyph-name="ntilde" unicode="&#xf1;" horiz-adv-x="1075" 
d="M43 864l152 99q90 -73 124 -160q138 160 314 160q158 0 237.5 -92t79.5 -261v-610h-221v590q0 85 -36.5 126.5t-114.5 41.5q-105 0 -232 -131v-627h-221v618q0 143 -82 246zM231 1202q49 38 71.5 54.5t65.5 35.5t81 19q40 0 99.5 -22.5t86.5 -22.5q26 0 51.5 9t37 16
t44.5 28l76 -117q-3 -2 -18.5 -15.5t-19.5 -16.5t-18.5 -14.5t-20 -15t-19.5 -13t-22 -12.5t-21 -9t-23.5 -8t-24 -4t-26.5 -2q-38 0 -95.5 22.5t-89.5 22.5q-25 0 -51 -8.5t-43 -17.5t-47 -28z" />
    <glyph glyph-name="ograve" unicode="&#xf2;" horiz-adv-x="1095" 
d="M78 471q0 121 35.5 215.5t99.5 154.5t148.5 91t185.5 31q102 0 187 -31t149 -91t99.5 -154.5t35.5 -215.5q0 -124 -35.5 -219.5t-99.5 -154t-148.5 -88t-187.5 -29.5t-187.5 29.5t-148 88t-98.5 154t-35 219.5zM291 1309l133 139l319 -291l-125 -129zM309 471
q0 -156 63.5 -234.5t174.5 -78.5q112 0 174.5 78t62.5 235q0 155 -64 235t-173 80q-110 0 -174 -80t-64 -235z" />
    <glyph glyph-name="oacute" unicode="&#xf3;" horiz-adv-x="1095" 
d="M78 471q0 121 35.5 215.5t99.5 154.5t148.5 91t185.5 31q102 0 187 -31t149 -91t99.5 -154.5t35.5 -215.5q0 -124 -35.5 -219.5t-99.5 -154t-148.5 -88t-187.5 -29.5t-187.5 29.5t-148 88t-98.5 154t-35 219.5zM309 471q0 -156 63.5 -234.5t174.5 -78.5q112 0 174.5 78
t62.5 235q0 155 -64 235t-173 80q-110 0 -174 -80t-64 -235zM352 1157l318 291l135 -139l-328 -281z" />
    <glyph glyph-name="ocircumflex" unicode="&#xf4;" horiz-adv-x="1095" 
d="M78 471q0 121 35.5 215.5t99.5 154.5t148.5 91t185.5 31q102 0 187 -31t149 -91t99.5 -154.5t35.5 -215.5q0 -124 -35.5 -219.5t-99.5 -154t-148.5 -88t-187.5 -29.5t-187.5 29.5t-148 88t-98.5 154t-35 219.5zM229 1147l318 291l317 -291l-102 -109l-215 166l-213 -166z
M309 471q0 -156 63.5 -234.5t174.5 -78.5q112 0 174.5 78t62.5 235q0 155 -64 235t-173 80q-110 0 -174 -80t-64 -235z" />
    <glyph glyph-name="otilde" unicode="&#xf5;" horiz-adv-x="1095" 
d="M78 471q0 121 35.5 215.5t99.5 154.5t148.5 91t185.5 31q102 0 187 -31t149 -91t99.5 -154.5t35.5 -215.5q0 -124 -35.5 -219.5t-99.5 -154t-148.5 -88t-187.5 -29.5t-187.5 29.5t-148 88t-98.5 154t-35 219.5zM242 1202q40 31 53.5 41t47 31.5t60.5 29t56 7.5
q40 0 99.5 -22.5t86.5 -22.5q26 0 51.5 9t37 16t44.5 28l76 -117q-3 -2 -18.5 -15.5t-19.5 -16.5t-18.5 -14.5t-20 -15t-19.5 -13t-22 -12.5t-21 -9t-23.5 -8t-24 -4t-26.5 -2q-38 0 -95 22.5t-89 22.5q-25 0 -51 -8.5t-43.5 -18t-47.5 -27.5zM309 471q0 -156 63.5 -234.5
t174.5 -78.5q112 0 174.5 78t62.5 235q0 155 -64 235t-173 80q-110 0 -174 -80t-64 -235z" />
    <glyph glyph-name="odieresis" unicode="&#xf6;" horiz-adv-x="1095" 
d="M78 471q0 121 35.5 215.5t99.5 154.5t148.5 91t185.5 31q102 0 187 -31t149 -91t99.5 -154.5t35.5 -215.5q0 -124 -35.5 -219.5t-99.5 -154t-148.5 -88t-187.5 -29.5t-187.5 29.5t-148 88t-98.5 154t-35 219.5zM231 1214q0 55 36.5 88t88.5 33t86.5 -32.5t34.5 -88.5
q0 -54 -35 -89t-86 -35q-52 0 -88.5 35t-36.5 89zM309 471q0 -156 63.5 -234.5t174.5 -78.5q112 0 174.5 78t62.5 235q0 155 -64 235t-173 80q-110 0 -174 -80t-64 -235zM621 1214q0 55 35.5 88t86.5 33q52 0 86.5 -32.5t34.5 -88.5q0 -54 -35 -89t-86 -35q-52 0 -87 34.5
t-35 89.5z" />
    <glyph glyph-name="divide" unicode="&#xf7;" horiz-adv-x="796" 
d="M41 453v180h715v-180h-715zM262 233q0 62 41 99t98 37t96.5 -37.5t39.5 -98.5q0 -60 -39.5 -99.5t-96.5 -39.5t-98 39t-41 100zM262 854q0 62 41 99.5t98 37.5t96.5 -38t39.5 -99q0 -59 -39 -98t-97 -39t-98.5 38t-40.5 99z" />
    <glyph glyph-name="oslash" unicode="&#xf8;" horiz-adv-x="1095" 
d="M78 471q0 121 35.5 215.5t99.5 154.5t148.5 91t185.5 31q125 0 221 -45l102 147l125 -72l-108 -157q131 -131 131 -365q0 -124 -35.5 -219.5t-99.5 -154t-148.5 -88t-187.5 -29.5q-123 0 -221 43l-101 -146l-125 72l109 153q-131 128 -131 369zM309 471q0 -95 31 -176
l319 463q-51 28 -112 28q-110 0 -174 -80t-64 -235zM436 184q54 -26 111 -26q112 0 174.5 78t62.5 235q0 101 -28 174z" />
    <glyph glyph-name="ugrave" unicode="&#xf9;" horiz-adv-x="1054" 
d="M125 344v598h221v-584q0 -188 141 -188q99 0 222 123v649h221v-639q0 -132 82 -246l-148 -94q-85 63 -127 162q-127 -145 -303 -145q-156 0 -232.5 96t-76.5 268zM270 1309l136 139l317 -291l-123 -129z" />
    <glyph glyph-name="uacute" unicode="&#xfa;" horiz-adv-x="1054" 
d="M125 344v598h221v-584q0 -188 141 -188q99 0 222 123v649h221v-639q0 -132 82 -246l-148 -94q-85 63 -127 162q-127 -145 -303 -145q-156 0 -232.5 96t-76.5 268zM344 1157l318 291l133 -139l-328 -281z" />
    <glyph glyph-name="ucircumflex" unicode="&#xfb;" horiz-adv-x="1054" 
d="M125 344v598h221v-584q0 -188 141 -188q99 0 222 123v649h221v-639q0 -132 82 -246l-148 -94q-85 63 -127 162q-127 -145 -303 -145q-156 0 -232.5 96t-76.5 268zM211 1147l317 291l318 -291l-103 -109l-215 166l-213 -166z" />
    <glyph glyph-name="udieresis" unicode="&#xfc;" horiz-adv-x="1054" 
d="M125 344v598h221v-584q0 -188 141 -188q99 0 222 123v649h221v-639q0 -132 82 -246l-148 -94q-85 63 -127 162q-127 -145 -303 -145q-156 0 -232.5 96t-76.5 268zM211 1214q0 55 35.5 88t87.5 33q53 0 88 -33t35 -88q0 -53 -35.5 -88.5t-87.5 -35.5t-87.5 34.5
t-35.5 89.5zM598 1214q0 55 36.5 88t88.5 33t86.5 -32.5t34.5 -88.5q0 -54 -35 -89t-86 -35q-52 0 -88.5 35t-36.5 89z" />
    <glyph glyph-name="yacute" unicode="&#xfd;" horiz-adv-x="964" 
d="M-4 942h244l272 -743l221 743h236l-348 -1122q-40 -131 -109.5 -190.5t-189.5 -59.5q-94 0 -211 41l36 153q91 -26 146 -26q83 0 121 121l43 141h-92zM287 1157l317 291l135 -139l-327 -281z" />
    <glyph glyph-name="thorn" unicode="&#xfe;" horiz-adv-x="1054" 
d="M43 1417l152 96q151 -118 151 -284v-367q108 101 254 101q176 0 273.5 -123.5t97.5 -368.5q0 -128 -34 -224t-97 -153.5t-145.5 -85.5t-184.5 -28q-79 0 -164 10v-400h-221v1579q0 145 -82 248zM346 170q79 -12 158 -12q111 0 173 78t62 235q0 305 -184 305
q-99 0 -209 -102v-504z" />
    <glyph glyph-name="ydieresis" unicode="&#xff;" horiz-adv-x="964" 
d="M-4 942h244l272 -743l221 743h236l-348 -1122q-40 -131 -109.5 -190.5t-189.5 -59.5q-94 0 -211 41l36 153q91 -26 146 -26q83 0 121 121l43 141h-92zM166 1214q0 55 36.5 88t88.5 33t86.5 -32.5t34.5 -88.5q0 -54 -35 -89t-86 -35q-52 0 -88.5 35t-36.5 89zM555 1214
q0 55 35.5 88t87.5 33t86.5 -32.5t34.5 -88.5q0 -54 -35 -89t-86 -35q-52 0 -87.5 34.5t-35.5 89.5z" />
    <glyph glyph-name="OE" unicode="&#x152;" horiz-adv-x="1648" 
d="M78 737q0 190 49.5 337t137.5 238t203.5 137t252.5 46q91 0 170 -20h706v-193h-524v-432h443v-193h-443v-464h524v-193h-698q-81 -20 -178 -20q-109 0 -203.5 26.5t-176 85t-139.5 145.5t-91 214.5t-33 285.5zM319 737q0 -280 111 -417.5t291 -137.5q65 0 121 15v1081
q-59 16 -121 16q-87 0 -159 -32.5t-127 -98.5t-85.5 -174.5t-30.5 -251.5z" />
    <glyph glyph-name="oe" unicode="&#x153;" horiz-adv-x="1638" 
d="M78 471q0 121 35.5 215.5t99.5 154.5t148.5 91t185.5 31q197 0 321 -121q118 121 297 121q195 0 298.5 -134t97.5 -397h-603q7 -133 70.5 -200.5t169.5 -67.5q98 0 295 69l55 -155q-69 -32 -109 -48t-112.5 -33t-144.5 -17q-199 0 -316 114q-123 -114 -319 -114
q-103 0 -187.5 29.5t-148 88t-98.5 154t-35 219.5zM309 471q0 -156 63.5 -234.5t174.5 -78.5q134 0 205 104q-29 92 -29 209q0 114 31 205q-32 51 -86 80.5t-121 29.5q-110 0 -174 -80t-64 -235zM965 584h370q-2 100 -48.5 158.5t-125.5 58.5q-78 0 -128.5 -56t-67.5 -161z
" />
    <glyph glyph-name="Ydieresis" unicode="&#x178;" horiz-adv-x="1165" 
d="M-10 1475h262l332 -648l331 648h261l-478 -893v-582h-231v582zM268 1659q0 55 36 89t87 34q52 0 86.5 -33.5t34.5 -89.5q0 -53 -35 -88t-86 -35q-52 0 -87.5 34.5t-35.5 88.5zM655 1659q0 55 36 89t87 34q52 0 87.5 -33.5t35.5 -89.5q0 -53 -35.5 -88t-87.5 -35
t-87.5 34.5t-35.5 88.5z" />
    <glyph glyph-name="circumflex" unicode="&#x2c6;" horiz-adv-x="802" 
d="M84 1147l317 291l318 -291l-105 -109l-213 166l-215 -166z" />
    <glyph glyph-name="tilde" unicode="&#x2dc;" horiz-adv-x="780" 
d="M84 1202q40 31 53.5 41t47 31.5t60.5 29t56 7.5q40 0 99.5 -22.5t86.5 -22.5q26 0 51.5 8.5t38 16t44.5 28.5l75 -117q-3 -2 -18.5 -15.5t-19.5 -16.5t-18.5 -14.5t-20 -15t-19.5 -13t-22 -12.5t-21 -9t-23.5 -8t-24 -4t-26.5 -2q-38 0 -95 22.5t-89 22.5q-25 0 -51 -8.5
t-43 -17.5t-47 -28z" />
    <glyph glyph-name="uni2000" unicode="&#x2000;" horiz-adv-x="933" 
 />
    <glyph glyph-name="uni2001" unicode="&#x2001;" horiz-adv-x="1866" 
 />
    <glyph glyph-name="uni2002" unicode="&#x2002;" horiz-adv-x="933" 
 />
    <glyph glyph-name="uni2003" unicode="&#x2003;" horiz-adv-x="1866" 
 />
    <glyph glyph-name="uni2004" unicode="&#x2004;" horiz-adv-x="622" 
 />
    <glyph glyph-name="uni2005" unicode="&#x2005;" horiz-adv-x="466" 
 />
    <glyph glyph-name="uni2006" unicode="&#x2006;" horiz-adv-x="311" 
 />
    <glyph glyph-name="uni2007" unicode="&#x2007;" horiz-adv-x="311" 
 />
    <glyph glyph-name="uni2008" unicode="&#x2008;" horiz-adv-x="233" 
 />
    <glyph glyph-name="uni2009" unicode="&#x2009;" horiz-adv-x="373" 
 />
    <glyph glyph-name="uni200A" unicode="&#x200a;" horiz-adv-x="103" 
 />
    <glyph glyph-name="uni2010" unicode="&#x2010;" horiz-adv-x="509" 
d="M41 442v170h428v-170h-428z" />
    <glyph glyph-name="uni2011" unicode="&#x2011;" horiz-adv-x="509" 
d="M41 442v170h428v-170h-428z" />
    <glyph glyph-name="figuredash" unicode="&#x2012;" horiz-adv-x="509" 
d="M41 442v170h428v-170h-428z" />
    <glyph glyph-name="endash" unicode="&#x2013;" horiz-adv-x="919" 
d="M41 442v170h838v-170h-838z" />
    <glyph glyph-name="emdash" unicode="&#x2014;" horiz-adv-x="1329" 
d="M41 442v170h1247v-170h-1247z" />
    <glyph glyph-name="quoteleft" unicode="&#x2018;" horiz-adv-x="385" 
d="M39 1024l123 471l180 -25l-70 -469z" />
    <glyph glyph-name="quoteright" unicode="&#x2019;" horiz-adv-x="385" 
d="M43 1026l70 469l233 -22l-125 -472z" />
    <glyph glyph-name="quotesinglbase" unicode="&#x201a;" horiz-adv-x="385" 
d="M43 -256l70 469l233 -23l-125 -469z" />
    <glyph glyph-name="quotedblleft" unicode="&#x201c;" horiz-adv-x="718" 
d="M39 1024l123 471l180 -25l-70 -469zM373 1024l125 471l178 -25l-68 -469z" />
    <glyph glyph-name="quotedblright" unicode="&#x201d;" horiz-adv-x="718" 
d="M43 1026l70 469l233 -22l-125 -472zM377 1026l69 469l234 -22l-123 -472z" />
    <glyph glyph-name="quotedblbase" unicode="&#x201e;" horiz-adv-x="718" 
d="M43 -256l70 469l233 -23l-125 -469zM377 -256l69 469l234 -23l-123 -469z" />
    <glyph glyph-name="bullet" unicode="&#x2022;" horiz-adv-x="501" 
d="M63 672q0 84 56.5 135t132.5 51q78 0 132 -51t54 -135q0 -81 -53.5 -135t-132.5 -54q-77 0 -133 53t-56 136z" />
    <glyph glyph-name="ellipsis" unicode="&#x2026;" horiz-adv-x="1114" 
d="M63 98q0 62 40.5 98.5t97.5 36.5t96 -37t39 -98q0 -60 -39 -99.5t-96 -39.5t-97.5 39t-40.5 100zM420 98q0 62 40 98.5t97 36.5q58 0 97.5 -37t39.5 -98q0 -60 -40 -99.5t-97 -39.5t-97 39t-40 100zM776 98q0 62 41 98.5t98 36.5t96.5 -37t39.5 -98q0 -60 -39.5 -99.5
t-96.5 -39.5t-98 39t-41 100z" />
    <glyph glyph-name="uni202F" unicode="&#x202f;" horiz-adv-x="373" 
 />
    <glyph glyph-name="guilsinglleft" unicode="&#x2039;" horiz-adv-x="495" 
d="M41 553l238 367l176 -50l-170 -317l170 -317l-176 -50z" />
    <glyph glyph-name="guilsinglright" unicode="&#x203a;" horiz-adv-x="495" 
d="M41 236l170 317l-170 317l176 50l238 -367l-238 -367z" />
    <glyph glyph-name="uni205F" unicode="&#x205f;" horiz-adv-x="466" 
 />
    <glyph glyph-name="Euro" unicode="&#x20ac;" horiz-adv-x="1134" 
d="M41 395v131l125 17q-2 20 -2 59q0 8 1 25.5t1 25.5l-125 17v133l147 14q23 91 66.5 163t96.5 117.5t117 76t126 43t125 12.5q171 0 377 -80l-49 -166q-189 53 -322 53q-101 0 -178 -55t-111 -164l484 -14v-133l-514 -15q0 -3 -1.5 -20t-1.5 -33q0 -38 3 -59l514 -17v-131
l-480 -16q33 -101 108.5 -152t178.5 -51q48 0 114.5 15t102 26.5t109.5 36.5l61 -162q-235 -112 -399 -112q-200 0 -337.5 101.5t-187.5 297.5z" />
    <glyph glyph-name="trademark" unicode="&#x2122;" horiz-adv-x="1662" 
d="M20 1319v156h625l-18 -156h-213v-668h-181v668h-213zM621 651l104 824h178l199 -553l194 553h179l104 -824h-184l-58 447l-151 -447h-172l-152 447l-57 -447h-184z" />
    <glyph glyph-name="uni25FC" unicode="&#x25fc;" horiz-adv-x="942" 
d="M0 0v942h942v-942h-942z" />
    <glyph glyph-name="uniFB01" unicode="&#xfb01;" horiz-adv-x="1040" 
d="M10 770v172h150v207q0 173 86.5 259.5t234.5 86.5q106 0 269 -55l-43 -166q-130 33 -193 33q-65 0 -98 -41t-33 -113v-211h532v-942h-223v770h-309v-770h-223v770h-150z" />
    <glyph glyph-name="uniFB02" unicode="&#xfb02;" horiz-adv-x="1040" 
d="M10 770v172h150v225q0 162 83 245t220 83q92 0 231 -47l70 47q151 -118 151 -287v-909q0 -145 82 -248l-161 -92q-144 108 -144 281v911q0 64 -16 123q-126 33 -180 33q-113 0 -113 -133v-232h190v-172h-190v-770h-223v770h-150z" />
    </font>
</defs>
</svg>
